<svg width="63" height="63" viewBox="0 0 63 63" fill="none" xmlns="http://www.w3.org/2000/svg">
<path d="M7.41952 22.5874L3.17363 31.8243L7.41953 41.0612L4.80722 42.2754L-4.56833e-07 31.8243L4.80722 21.3804L7.41952 22.5874Z" fill="black"/>
<path d="M62.7766 31.8252L57.9766 42.2764L55.3643 41.0621L59.6102 31.8252L55.3643 22.5884L57.9766 21.3813L62.7766 31.8252Z" fill="black"/>
<path d="M22.5864 55.3568L31.8233 59.6027L41.0602 55.3568L42.2744 57.9691L31.8233 62.7764L21.3794 57.9692L22.5864 55.3568Z" fill="black"/>
<path d="M31.8243 -0.000216941L42.2754 4.7998L41.0612 7.41211L31.8243 3.16622L22.5874 7.41211L21.3804 4.7998L31.8243 -0.000216941Z" fill="black"/>
<path d="M37.9209 43.25V40.75C37.9209 39.4239 37.3941 38.1521 36.4564 37.2145C35.5188 36.2768 34.247 35.75 32.9209 35.75H22.9209C21.5948 35.75 20.323 36.2768 19.3854 37.2145C18.4477 38.1521 17.9209 39.4239 17.9209 40.75V43.25M45.4209 43.25V40.75C45.4201 39.6422 45.0513 38.566 44.3726 37.6904C43.6939 36.8148 42.7436 36.1895 41.6709 35.9125M36.6709 20.9125C37.7464 21.1879 38.6997 21.8134 39.3804 22.6904C40.0612 23.5674 40.4307 24.646 40.4307 25.7562C40.4307 26.8665 40.0612 27.9451 39.3804 28.8221C38.6997 29.6991 37.7464 30.3246 36.6709 30.6M32.9209 25.75C32.9209 28.5114 30.6823 30.75 27.9209 30.75C25.1595 30.75 22.9209 28.5114 22.9209 25.75C22.9209 22.9886 25.1595 20.75 27.9209 20.75C30.6823 20.75 32.9209 22.9886 32.9209 25.75Z" stroke="#1E1E1E" stroke-width="2" stroke-linecap="round" stroke-linejoin="round"/>
</svg>
