<?xml version="1.0" encoding="UTF-8" standalone="no"?>
<!DOCTYPE svg PUBLIC "-//W3C//DTD SVG 1.1//EN" "http://www.w3.org/Graphics/SVG/1.1/DTD/svg11.dtd">
<svg width="100%" height="100%" viewBox="0 0 141 110" version="1.1" xmlns="http://www.w3.org/2000/svg" xmlns:xlink="http://www.w3.org/1999/xlink" xml:space="preserve" xmlns:serif="http://www.serif.com/" style="fill-rule:evenodd;clip-rule:evenodd;stroke-linejoin:round;stroke-miterlimit:2;">
    <g transform="matrix(1,0,0,1,-1107,-3613.837043)">
        <g transform="matrix(0.213313,0,0,0.206501,1177.5,3668.456559)">
            <g transform="matrix(1,0,0,1,-330.5,-264.5)">
                <circle cx="36.5" cy="100.5" r="15.5" style="fill:rgb(240,157,182);"/>
                <circle cx="36.5" cy="141.5" r="15.5" style="fill:rgb(240,157,182);"/>
                <circle cx="36.5" cy="182.5" r="15.5" style="fill:rgb(240,157,182);"/>
                <circle cx="36.5" cy="223.5" r="15.5" style="fill:rgb(240,157,182);"/>
                <circle cx="36.5" cy="264.5" r="15.5" style="fill:rgb(240,157,182);"/>
                <circle cx="36.5" cy="305.5" r="15.5" style="fill:rgb(240,157,182);"/>
                <circle cx="36.5" cy="346.5" r="15.5" style="fill:rgb(240,157,182);"/>
                <circle cx="36.5" cy="387.5" r="15.5" style="fill:rgb(240,157,182);"/>
                <circle cx="36.5" cy="428.5" r="15.5" style="fill:rgb(240,157,182);"/>
                <circle cx="76" cy="141" r="15" style="fill:rgb(240,157,182);"/>
                <circle cx="76" cy="182" r="15" style="fill:rgb(240,157,182);"/>
                <circle cx="76" cy="223" r="15" style="fill:rgb(240,157,182);"/>
                <circle cx="76" cy="264" r="15" style="fill:rgb(240,157,182);"/>
                <circle cx="116" cy="141" r="15" style="fill:rgb(240,157,182);"/>
                <circle cx="116" cy="182" r="15" style="fill:rgb(240,157,182);"/>
                <circle cx="116" cy="223" r="15" style="fill:rgb(240,157,182);"/>
                <circle cx="116" cy="264" r="15" style="fill:rgb(240,157,182);"/>
                <circle cx="76" cy="100" r="15" style="fill:rgb(240,157,182);"/>
                <circle cx="76" cy="59" r="15" style="fill:rgb(240,157,182);"/>
                <circle cx="36" cy="59" r="15" style="fill:rgb(240,157,182);"/>
                <circle cx="156" cy="141" r="15" style="fill:rgb(240,157,182);"/>
                <circle cx="156" cy="182" r="15" style="fill:rgb(240,157,182);"/>
                <circle cx="156" cy="223" r="15" style="fill:rgb(240,157,182);"/>
                <circle cx="156" cy="264" r="15" style="fill:rgb(240,157,182);"/>
                <circle cx="116" cy="100" r="15" style="fill:rgb(240,157,182);"/>
                <circle cx="76" cy="305" r="15" style="fill:rgb(240,157,182);"/>
                <circle cx="76" cy="346" r="15" style="fill:rgb(240,157,182);"/>
                <circle cx="196.5" cy="141.5" r="15.5" style="fill:rgb(240,157,182);"/>
                <circle cx="196.5" cy="182.5" r="15.5" style="fill:rgb(240,157,182);"/>
                <circle cx="196.5" cy="223.5" r="15.5" style="fill:rgb(240,157,182);"/>
                <circle cx="196.5" cy="264.5" r="15.5" style="fill:rgb(240,157,182);"/>
                <circle cx="76" cy="387" r="15" style="fill:rgb(240,157,182);"/>
                <circle cx="76" cy="428" r="15" style="fill:rgb(240,157,182);"/>
                <circle cx="116" cy="59" r="15" style="fill:rgb(240,157,182);"/>
                <circle cx="156" cy="100" r="15" style="fill:rgb(240,157,182);"/>
                <circle cx="116" cy="305" r="15" style="fill:rgb(240,157,182);"/>
                <circle cx="116" cy="346" r="15" style="fill:rgb(240,157,182);"/>
                <circle cx="236" cy="141" r="15" style="fill:rgb(240,157,182);"/>
                <circle cx="236" cy="182" r="15" style="fill:rgb(240,157,182);"/>
                <circle cx="236" cy="223" r="15" style="fill:rgb(240,157,182);"/>
                <circle cx="236" cy="264" r="15" style="fill:rgb(240,157,182);"/>
                <circle cx="116" cy="387" r="15" style="fill:rgb(240,157,182);"/>
                <circle cx="116" cy="428" r="15" style="fill:rgb(240,157,182);"/>
                <circle cx="196.5" cy="100.5" r="15.5" style="fill:rgb(240,157,182);"/>
                <circle cx="276" cy="141" r="15" style="fill:rgb(240,157,182);"/>
                <circle cx="276" cy="182" r="15" style="fill:rgb(240,157,182);"/>
                <circle cx="276" cy="223" r="15" style="fill:rgb(240,157,182);"/>
                <circle cx="276" cy="264" r="15" style="fill:rgb(240,157,182);"/>
                <circle cx="156" cy="59" r="15" style="fill:rgb(240,157,182);"/>
                <circle cx="196" cy="59" r="15" style="fill:rgb(240,157,182);"/>
                <circle cx="316" cy="141" r="15" style="fill:rgb(240,157,182);"/>
                <circle cx="316" cy="182" r="15" style="fill:rgb(240,157,182);"/>
                <circle cx="316" cy="223" r="15" style="fill:rgb(240,157,182);"/>
                <circle cx="316" cy="264" r="15" style="fill:rgb(240,157,182);"/>
                <circle cx="156" cy="305" r="15" style="fill:rgb(240,157,182);"/>
                <circle cx="356" cy="141" r="15" style="fill:rgb(240,157,182);"/>
                <circle cx="356" cy="182" r="15" style="fill:rgb(240,157,182);"/>
                <circle cx="356" cy="223" r="15" style="fill:rgb(240,157,182);"/>
                <circle cx="356" cy="264" r="15" style="fill:rgb(240,157,182);"/>
                <circle cx="156" cy="346" r="15" style="fill:rgb(240,157,182);"/>
                <circle cx="156" cy="387" r="15" style="fill:rgb(240,157,182);"/>
                <circle cx="396" cy="141" r="15" style="fill:white;"/>
                <circle cx="396" cy="182" r="15" style="fill:rgb(240,157,182);"/>
                <circle cx="396" cy="223" r="15" style="fill:rgb(240,157,182);"/>
                <circle cx="396" cy="264" r="15" style="fill:rgb(240,157,182);"/>
                <circle cx="156" cy="428" r="15" style="fill:rgb(240,157,182);"/>
                <circle cx="236" cy="100" r="15" style="fill:rgb(240,157,182);"/>
                <circle cx="196.5" cy="305.5" r="15.5" style="fill:rgb(240,157,182);"/>
                <circle cx="196.5" cy="346.5" r="15.5" style="fill:rgb(240,157,182);"/>
                <circle cx="196.5" cy="387.5" r="15.5" style="fill:rgb(240,157,182);"/>
                <circle cx="196.5" cy="428.5" r="15.5" style="fill:rgb(240,157,182);"/>
                <circle cx="276" cy="100" r="15" style="fill:rgb(240,157,182);"/>
                <circle cx="316" cy="100" r="15" style="fill:rgb(240,157,182);"/>
                <circle cx="236" cy="59" r="15" style="fill:rgb(240,157,182);"/>
                <circle cx="356" cy="100" r="15" style="fill:white;"/>
                <circle cx="236" cy="59" r="15" style="fill:rgb(240,157,182);"/>
                <circle cx="236" cy="305" r="15" style="fill:rgb(240,157,182);"/>
                <circle cx="236" cy="346" r="15" style="fill:rgb(240,157,182);"/>
                <circle cx="236" cy="387" r="15" style="fill:rgb(240,157,182);"/>
                <circle cx="236" cy="428" r="15" style="fill:rgb(240,157,182);"/>
                <circle cx="396" cy="100" r="15" style="fill:white;"/>
                <circle cx="276" cy="59" r="15" style="fill:rgb(240,157,182);"/>
                <circle cx="276" cy="59" r="15" style="fill:rgb(240,157,182);"/>
                <circle cx="276" cy="305" r="15" style="fill:rgb(240,157,182);"/>
                <circle cx="276" cy="346" r="15" style="fill:rgb(240,157,182);"/>
                <circle cx="276" cy="387" r="15" style="fill:rgb(240,157,182);"/>
                <circle cx="276" cy="428" r="15" style="fill:rgb(240,157,182);"/>
                <circle cx="316" cy="59" r="15" style="fill:rgb(240,157,182);"/>
                <circle cx="316" cy="59" r="15" style="fill:rgb(240,157,182);"/>
                <circle cx="316" cy="305" r="15" style="fill:rgb(240,157,182);"/>
                <circle cx="316" cy="346" r="15" style="fill:rgb(240,157,182);"/>
                <circle cx="316" cy="387" r="15" style="fill:rgb(240,157,182);"/>
                <circle cx="316" cy="428" r="15" style="fill:rgb(240,157,182);"/>
                <circle cx="356" cy="59" r="15" style="fill:white;"/>
                <circle cx="356" cy="59" r="15" style="fill:white;"/>
                <circle cx="356" cy="305" r="15" style="fill:rgb(240,157,182);"/>
                <circle cx="356" cy="346" r="15" style="fill:rgb(240,157,182);"/>
                <circle cx="356" cy="387" r="15" style="fill:rgb(240,157,182);"/>
                <circle cx="356" cy="428" r="15" style="fill:rgb(240,157,182);"/>
                <circle cx="396" cy="59" r="15" style="fill:white;"/>
                <circle cx="396" cy="59" r="15" style="fill:white;"/>
                <circle cx="396" cy="305" r="15" style="fill:rgb(240,157,182);"/>
                <circle cx="396" cy="346" r="15" style="fill:rgb(240,157,182);"/>
                <circle cx="396" cy="387" r="15" style="fill:rgb(240,157,182);"/>
                <circle cx="396" cy="428" r="15" style="fill:rgb(240,157,182);"/>
                <path d="M499.416,91.24C499.416,97.384 497.784,102.024 494.52,105.16C491.256,108.232 486.392,109.768 479.928,109.768C476.024,109.768 472.632,109.608 469.752,109.288C466.872,108.968 464.568,108.488 462.84,107.848L462.84,100.552C465.08,101.064 467.416,101.448 469.848,101.704C472.344,101.96 475.032,102.088 477.912,102.088C482.776,102.088 486.2,101.256 488.184,99.592C490.232,97.928 491.256,95.112 491.256,91.144C491.256,87.496 490.296,84.936 488.376,83.464C486.456,81.992 482.84,81.256 477.528,81.256C475.352,81.256 473.304,81.352 471.384,81.544C469.464,81.672 467.544,81.928 465.624,82.312L465.624,48.808L495.576,48.808L495.576,56.2L473.784,56.2L473.784,74.824C475.256,74.632 476.6,74.504 477.816,74.44C479.096,74.312 480.344,74.248 481.56,74.248C487.832,74.248 492.376,75.624 495.192,78.376C498.008,81.128 499.416,85.416 499.416,91.24ZM527.357,63.304C527.357,68.68 526.429,72.52 524.573,74.824C522.781,77.128 519.709,78.28 515.357,78.28C511.005,78.28 507.901,77.128 506.045,74.824C504.253,72.52 503.357,68.68 503.357,63.304C503.357,57.864 504.253,54.024 506.045,51.784C507.901,49.48 511.005,48.328 515.357,48.328C519.709,48.328 522.781,49.48 524.573,51.784C526.429,54.024 527.357,57.864 527.357,63.304ZM548.765,48.808L519.965,109L514.109,109L542.909,48.808L548.765,48.808ZM521.693,63.304C521.693,59.528 521.213,56.904 520.253,55.432C519.357,53.896 517.725,53.128 515.357,53.128C513.053,53.128 511.421,53.896 510.461,55.432C509.565,56.904 509.117,59.528 509.117,63.304C509.117,67.016 509.565,69.608 510.461,71.08C511.421,72.552 513.053,73.288 515.357,73.288C517.725,73.288 519.357,72.552 520.253,71.08C521.213,69.608 521.693,67.016 521.693,63.304ZM559.709,94.408C559.709,99.848 558.813,103.72 557.021,106.024C555.229,108.264 552.157,109.384 547.805,109.384C543.453,109.384 540.349,108.264 538.493,106.024C536.701,103.72 535.805,99.848 535.805,94.408C535.805,88.968 536.701,85.128 538.493,82.888C540.349,80.584 543.453,79.432 547.805,79.432C552.093,79.432 555.133,80.584 556.925,82.888C558.781,85.128 559.709,88.968 559.709,94.408ZM554.045,94.408C554.045,90.632 553.565,88.008 552.605,86.536C551.709,85 550.109,84.232 547.805,84.232C545.437,84.232 543.773,85 542.813,86.536C541.917,88.008 541.469,90.632 541.469,94.408C541.469,98.12 541.917,100.712 542.813,102.184C543.773,103.656 545.437,104.392 547.805,104.392C550.109,104.392 551.709,103.656 552.605,102.184C553.565,100.712 554.045,98.12 554.045,94.408Z" style="fill:white;fill-rule:nonzero;"/>
                <path d="M482.808,155.848C490.552,155.848 495.928,158.024 498.936,162.376C502.008,166.728 503.544,174.312 503.544,185.128C503.544,196.712 501.464,205.064 497.304,210.184C493.208,215.24 486.488,217.768 477.144,217.768C475.608,217.768 473.976,217.672 472.248,217.48C470.52,217.352 469.208,217.192 468.312,217L468.312,209.608C469.336,209.736 470.584,209.864 472.056,209.992C473.592,210.056 475.288,210.088 477.144,210.088C483.416,210.088 487.864,208.648 490.488,205.768C493.176,202.888 494.744,197.8 495.192,190.504C492.76,191.976 490.232,193.096 487.608,193.864C484.984,194.568 482.168,194.92 479.16,194.92C473.336,194.92 469.048,193.416 466.296,190.408C463.544,187.336 462.168,182.632 462.168,176.296C462.168,169.832 463.96,164.808 467.544,161.224C471.192,157.64 476.28,155.848 482.808,155.848ZM482.808,163.24C478.648,163.24 475.48,164.328 473.304,166.504C471.192,168.616 470.136,171.752 470.136,175.912C470.136,180.328 471,183.464 472.728,185.32C474.52,187.112 477.624,188.008 482.04,188.008C484.408,188.008 486.712,187.688 488.952,187.048C491.192,186.344 493.336,185.32 495.384,183.976C495.32,175.976 494.392,170.536 492.6,167.656C490.872,164.712 487.608,163.24 482.808,163.24ZM546.621,199.24C546.621,205.384 544.989,210.024 541.725,213.16C538.461,216.232 533.597,217.768 527.133,217.768C523.229,217.768 519.837,217.608 516.957,217.288C514.077,216.968 511.773,216.488 510.045,215.848L510.045,208.552C512.285,209.064 514.621,209.448 517.053,209.704C519.549,209.96 522.237,210.088 525.117,210.088C529.981,210.088 533.405,209.256 535.389,207.592C537.437,205.928 538.461,203.112 538.461,199.144C538.461,195.496 537.501,192.936 535.581,191.464C533.661,189.992 530.045,189.256 524.733,189.256C522.557,189.256 520.509,189.352 518.589,189.544C516.669,189.672 514.749,189.928 512.829,190.312L512.829,156.808L542.781,156.808L542.781,164.2L520.989,164.2L520.989,182.824C522.461,182.632 523.805,182.504 525.021,182.44C526.301,182.312 527.549,182.248 528.765,182.248C535.037,182.248 539.581,183.624 542.397,186.376C545.213,189.128 546.621,193.416 546.621,199.24ZM574.562,171.304C574.562,176.68 573.634,180.52 571.778,182.824C569.986,185.128 566.914,186.28 562.562,186.28C558.21,186.28 555.106,185.128 553.25,182.824C551.458,180.52 550.562,176.68 550.562,171.304C550.562,165.864 551.458,162.024 553.25,159.784C555.106,157.48 558.21,156.328 562.562,156.328C566.914,156.328 569.986,157.48 571.778,159.784C573.634,162.024 574.562,165.864 574.562,171.304ZM595.97,156.808L567.17,217L561.314,217L590.114,156.808L595.97,156.808ZM568.898,171.304C568.898,167.528 568.418,164.904 567.458,163.432C566.562,161.896 564.93,161.128 562.562,161.128C560.258,161.128 558.626,161.896 557.666,163.432C556.77,164.904 556.322,167.528 556.322,171.304C556.322,175.016 556.77,177.608 557.666,179.08C558.626,180.552 560.258,181.288 562.562,181.288C564.93,181.288 566.562,180.552 567.458,179.08C568.418,177.608 568.898,175.016 568.898,171.304ZM606.914,202.408C606.914,207.848 606.018,211.72 604.226,214.024C602.434,216.264 599.362,217.384 595.01,217.384C590.658,217.384 587.554,216.264 585.698,214.024C583.906,211.72 583.01,207.848 583.01,202.408C583.01,196.968 583.906,193.128 585.698,190.888C587.554,188.584 590.658,187.432 595.01,187.432C599.298,187.432 602.338,188.584 604.13,190.888C605.986,193.128 606.914,196.968 606.914,202.408ZM601.25,202.408C601.25,198.632 600.77,196.008 599.81,194.536C598.914,193 597.314,192.232 595.01,192.232C592.642,192.232 590.978,193 590.018,194.536C589.122,196.008 588.674,198.632 588.674,202.408C588.674,206.12 589.122,208.712 590.018,210.184C590.978,211.656 592.642,212.392 595.01,212.392C597.314,212.392 598.914,211.656 599.81,210.184C600.77,208.712 601.25,206.12 601.25,202.408Z" style="fill:rgb(240,157,182);fill-rule:nonzero;"/>
                <path d="M474.548,130.24L474.548,131.406C474.152,131.611 473.595,131.787 472.876,131.934C472.172,132.081 471.461,132.154 470.742,132.154C469.07,132.154 467.867,131.714 467.134,130.834C466.415,129.939 466.056,128.487 466.056,126.478C466.056,124.527 466.423,123.112 467.156,122.232C467.904,121.352 469.107,120.912 470.764,120.912C472.275,120.912 473.36,121.264 474.02,121.968C474.68,122.672 475.01,123.823 475.01,125.422C475.01,125.671 475.003,125.913 474.988,126.148C474.973,126.383 474.944,126.661 474.9,126.984L467.442,126.984C467.457,128.377 467.728,129.382 468.256,129.998C468.784,130.599 469.686,130.9 470.962,130.9C471.578,130.9 472.216,130.841 472.876,130.724C473.536,130.592 474.093,130.431 474.548,130.24ZM473.756,125.246C473.741,124.131 473.499,123.339 473.03,122.87C472.561,122.386 471.805,122.144 470.764,122.144C469.561,122.144 468.703,122.423 468.19,122.98C467.691,123.537 467.442,124.483 467.442,125.818L473.712,125.818C473.727,125.73 473.734,125.642 473.734,125.554C473.749,125.451 473.756,125.349 473.756,125.246ZM478.838,132L477.474,132L477.474,121.132L478.64,121.132L478.728,122.188L478.794,122.188C479.439,121.748 480.092,121.425 480.752,121.22C481.412,121.015 482.131,120.912 482.908,120.912C484.111,120.912 485.02,121.213 485.636,121.814C486.252,122.415 486.56,123.303 486.56,124.476L486.56,132L485.196,132L485.196,124.63C485.196,123.794 484.969,123.171 484.514,122.76C484.059,122.349 483.363,122.144 482.424,122.144C481.852,122.144 481.265,122.239 480.664,122.43C480.063,122.606 479.454,122.877 478.838,123.244L478.838,132ZM501.288,130.24L501.288,131.406C500.892,131.611 500.335,131.787 499.616,131.934C498.912,132.081 498.201,132.154 497.482,132.154C495.81,132.154 494.608,131.714 493.874,130.834C493.156,129.939 492.796,128.487 492.796,126.478C492.796,124.527 493.163,123.112 493.896,122.232C494.644,121.352 495.847,120.912 497.504,120.912C499.015,120.912 500.1,121.264 500.76,121.968C501.42,122.672 501.75,123.823 501.75,125.422C501.75,125.671 501.743,125.913 501.728,126.148C501.714,126.383 501.684,126.661 501.64,126.984L494.182,126.984C494.197,128.377 494.468,129.382 494.996,129.998C495.524,130.599 496.426,130.9 497.702,130.9C498.318,130.9 498.956,130.841 499.616,130.724C500.276,130.592 500.834,130.431 501.288,130.24ZM500.496,125.246C500.482,124.131 500.24,123.339 499.77,122.87C499.301,122.386 498.546,122.144 497.504,122.144C496.302,122.144 495.444,122.423 494.93,122.98C494.432,123.537 494.182,124.483 494.182,125.818L500.452,125.818C500.467,125.73 500.474,125.642 500.474,125.554C500.489,125.451 500.496,125.349 500.496,125.246ZM505.578,117.37L505.578,132L504.214,132L504.214,117.37L505.578,117.37ZM513.802,132L512.438,132L512.438,121.132L513.67,121.132L513.758,122.034L513.802,122.034C514.506,121.623 515.122,121.337 515.65,121.176C516.192,121 516.735,120.912 517.278,120.912C517.894,120.912 518.422,121.015 518.862,121.22C519.316,121.411 519.676,121.697 519.94,122.078L519.984,122.078C520.644,121.682 521.289,121.389 521.92,121.198C522.565,121.007 523.225,120.912 523.9,120.912C524.941,120.912 525.726,121.183 526.254,121.726C526.796,122.254 527.068,123.039 527.068,124.08L527.068,132L525.704,132L525.704,124.234C525.704,123.515 525.513,122.987 525.132,122.65C524.75,122.313 524.156,122.144 523.35,122.144C522.88,122.144 522.389,122.217 521.876,122.364C521.377,122.511 520.864,122.731 520.336,123.024C520.38,123.2 520.409,123.376 520.424,123.552C520.438,123.728 520.446,123.904 520.446,124.08L520.446,132L519.082,132L519.082,124.234C519.082,123.515 518.891,122.987 518.51,122.65C518.128,122.313 517.527,122.144 516.706,122.144C516.295,122.144 515.862,122.217 515.408,122.364C514.953,122.511 514.418,122.76 513.802,123.112L513.802,132ZM537.995,130.24L537.995,131.406C537.599,131.611 537.041,131.787 536.323,131.934C535.619,132.081 534.907,132.154 534.189,132.154C532.517,132.154 531.314,131.714 530.581,130.834C529.862,129.939 529.503,128.487 529.503,126.478C529.503,124.527 529.869,123.112 530.603,122.232C531.351,121.352 532.553,120.912 534.211,120.912C535.721,120.912 536.807,121.264 537.467,121.968C538.127,122.672 538.457,123.823 538.457,125.422C538.457,125.671 538.449,125.913 538.435,126.148C538.42,126.383 538.391,126.661 538.347,126.984L530.889,126.984C530.903,128.377 531.175,129.382 531.703,129.998C532.231,130.599 533.133,130.9 534.409,130.9C535.025,130.9 535.663,130.841 536.323,130.724C536.983,130.592 537.54,130.431 537.995,130.24ZM537.203,125.246C537.188,124.131 536.946,123.339 536.477,122.87C536.007,122.386 535.252,122.144 534.211,122.144C533.008,122.144 532.15,122.423 531.637,122.98C531.138,123.537 530.889,124.483 530.889,125.818L537.159,125.818C537.173,125.73 537.181,125.642 537.181,125.554C537.195,125.451 537.203,125.349 537.203,125.246ZM542.285,132L540.921,132L540.921,121.132L542.153,121.132L542.241,122.1L542.307,122.1C542.908,121.763 543.509,121.506 544.111,121.33C544.712,121.154 545.306,121.066 545.893,121.066L546.399,121.066C546.487,121.066 546.56,121.073 546.619,121.088L546.619,122.408C546.516,122.379 546.384,122.364 546.223,122.364C546.076,122.349 545.849,122.342 545.541,122.342C544.983,122.342 544.426,122.415 543.869,122.562C543.311,122.709 542.783,122.921 542.285,123.2L542.285,132ZM555.639,130.174L555.639,131.34C555.258,131.575 554.715,131.773 554.011,131.934C553.307,132.081 552.566,132.154 551.789,132.154C550.249,132.154 549.171,131.743 548.555,130.922C547.939,130.086 547.631,128.627 547.631,126.544C547.631,124.52 548.027,123.075 548.819,122.21C549.626,121.345 550.982,120.912 552.889,120.912C553.314,120.912 553.696,120.927 554.033,120.956C554.37,120.971 554.81,121.015 555.353,121.088L555.353,122.32C554.634,122.232 554.128,122.181 553.835,122.166C553.556,122.151 553.241,122.144 552.889,122.144C551.408,122.144 550.388,122.467 549.831,123.112C549.274,123.757 548.995,124.901 548.995,126.544C548.995,128.216 549.215,129.36 549.655,129.976C550.095,130.592 550.909,130.9 552.097,130.9C552.728,130.9 553.366,130.834 554.011,130.702C554.671,130.555 555.214,130.379 555.639,130.174ZM560.244,132.154C559.13,132.154 558.308,131.89 557.78,131.362C557.267,130.834 557.01,129.998 557.01,128.854C557.01,127.71 557.326,126.896 557.956,126.412C558.587,125.928 559.658,125.686 561.168,125.686C561.711,125.686 562.239,125.708 562.752,125.752C563.266,125.796 563.764,125.862 564.248,125.95L564.248,124.806C564.248,123.838 564.028,123.156 563.588,122.76C563.148,122.349 562.43,122.144 561.432,122.144C560.758,122.144 560.164,122.173 559.65,122.232C559.152,122.291 558.638,122.386 558.11,122.518L558.11,121.308C558.726,121.161 559.313,121.059 559.87,121C560.442,120.941 561.102,120.912 561.85,120.912C563.141,120.912 564.087,121.22 564.688,121.836C565.304,122.437 565.612,123.391 565.612,124.696L565.612,132L564.38,132L564.314,130.922L564.27,130.922C563.816,131.289 563.222,131.589 562.488,131.824C561.755,132.044 561.007,132.154 560.244,132.154ZM561.322,126.808C560.208,126.808 559.423,126.955 558.968,127.248C558.528,127.541 558.308,128.047 558.308,128.766C558.308,129.529 558.492,130.079 558.858,130.416C559.225,130.753 559.819,130.922 560.64,130.922C561.3,130.922 561.96,130.827 562.62,130.636C563.295,130.431 563.838,130.181 564.248,129.888L564.248,127.072C563.764,126.984 563.28,126.918 562.796,126.874C562.327,126.83 561.836,126.808 561.322,126.808ZM575.977,117.37L577.341,117.37L577.341,132L576.175,132L576.065,130.966L575.977,130.966C575.537,131.362 575.009,131.663 574.393,131.868C573.792,132.059 573.08,132.154 572.259,132.154C570.763,132.154 569.685,131.714 569.025,130.834C568.38,129.939 568.057,128.509 568.057,126.544C568.057,124.535 568.446,123.097 569.223,122.232C570.015,121.352 571.335,120.912 573.183,120.912C573.726,120.912 574.232,120.956 574.701,121.044C575.185,121.132 575.61,121.257 575.977,121.418L575.977,117.37ZM573.315,122.144C571.819,122.144 570.792,122.467 570.235,123.112C569.692,123.757 569.421,124.901 569.421,126.544C569.421,128.143 569.656,129.272 570.125,129.932C570.609,130.577 571.474,130.9 572.721,130.9C573.337,130.9 573.916,130.819 574.459,130.658C575.016,130.497 575.522,130.255 575.977,129.932L575.977,122.628C575.566,122.452 575.148,122.327 574.723,122.254C574.298,122.181 573.828,122.144 573.315,122.144ZM589.749,126.544C589.749,128.597 589.382,130.049 588.649,130.9C587.915,131.736 586.647,132.154 584.843,132.154C582.951,132.154 581.653,131.758 580.949,130.966C580.245,130.159 579.893,128.685 579.893,126.544C579.893,124.476 580.259,123.024 580.993,122.188C581.741,121.337 583.024,120.912 584.843,120.912C586.72,120.912 588.003,121.315 588.693,122.122C589.397,122.914 589.749,124.388 589.749,126.544ZM581.257,126.522C581.257,128.282 581.491,129.455 581.961,130.042C582.445,130.614 583.405,130.9 584.843,130.9C586.221,130.9 587.153,130.592 587.637,129.976C588.135,129.36 588.385,128.209 588.385,126.522C588.385,124.762 588.15,123.596 587.681,123.024C587.211,122.437 586.265,122.144 584.843,122.144C583.449,122.144 582.503,122.452 582.005,123.068C581.506,123.669 581.257,124.821 581.257,126.522Z" style="fill:white;fill-rule:nonzero;"/>
                <path d="M467.222,231.32L465.506,231.32L465.506,230.132L467.222,230.132L467.222,229.78C467.222,228.533 467.515,227.617 468.102,227.03C468.689,226.443 469.605,226.15 470.852,226.15C471.16,226.15 471.461,226.165 471.754,226.194C472.047,226.223 472.348,226.267 472.656,226.326L472.656,227.492C472.48,227.448 472.238,227.419 471.93,227.404C471.622,227.375 471.314,227.36 471.006,227.36C470.111,227.36 469.481,227.536 469.114,227.888C468.762,228.24 468.586,228.863 468.586,229.758L468.586,230.132L472.326,230.132L472.326,231.32L468.586,231.32L468.586,241L467.222,241L467.222,231.32ZM477.663,241.154C476.475,241.154 475.581,240.853 474.979,240.252C474.378,239.651 474.077,238.756 474.077,237.568L474.077,230.132L475.441,230.132L475.441,237.414C475.441,238.265 475.654,238.888 476.079,239.284C476.505,239.68 477.179,239.878 478.103,239.878C478.646,239.878 479.196,239.805 479.753,239.658C480.311,239.497 480.89,239.262 481.491,238.954L481.491,230.132L482.855,230.132L482.855,241L481.623,241L481.557,240.01L481.535,240.01C480.787,240.421 480.105,240.714 479.489,240.89C478.888,241.066 478.279,241.154 477.663,241.154ZM492.119,239.68L492.119,240.846C491.855,240.934 491.532,241.007 491.151,241.066C490.784,241.125 490.425,241.154 490.073,241.154C488.782,241.154 487.865,240.868 487.323,240.296C486.78,239.709 486.509,238.697 486.509,237.26L486.509,231.32L484.793,231.32L484.793,230.132L486.531,230.132L486.773,227.448L487.873,227.448L487.873,230.132L491.987,230.132L491.987,231.32L487.873,231.32L487.873,237.216C487.873,238.257 488.056,238.969 488.423,239.35C488.789,239.717 489.427,239.9 490.337,239.9C490.63,239.9 490.945,239.878 491.283,239.834C491.635,239.79 491.913,239.739 492.119,239.68ZM497.424,241.154C496.236,241.154 495.341,240.853 494.74,240.252C494.139,239.651 493.838,238.756 493.838,237.568L493.838,230.132L495.202,230.132L495.202,237.414C495.202,238.265 495.415,238.888 495.84,239.284C496.265,239.68 496.94,239.878 497.864,239.878C498.407,239.878 498.957,239.805 499.514,239.658C500.071,239.497 500.651,239.262 501.252,238.954L501.252,230.132L502.616,230.132L502.616,241L501.384,241L501.318,240.01L501.296,240.01C500.548,240.421 499.866,240.714 499.25,240.89C498.649,241.066 498.04,241.154 497.424,241.154ZM507.039,241L505.675,241L505.675,230.132L506.907,230.132L506.995,231.1L507.061,231.1C507.663,230.763 508.264,230.506 508.865,230.33C509.467,230.154 510.061,230.066 510.647,230.066L511.153,230.066C511.241,230.066 511.315,230.073 511.373,230.088L511.373,231.408C511.271,231.379 511.139,231.364 510.977,231.364C510.831,231.349 510.603,231.342 510.295,231.342C509.738,231.342 509.181,231.415 508.623,231.562C508.066,231.709 507.538,231.921 507.039,232.2L507.039,241ZM522.263,235.544C522.263,237.597 521.896,239.049 521.163,239.9C520.43,240.736 519.161,241.154 517.357,241.154C515.465,241.154 514.167,240.758 513.463,239.966C512.759,239.159 512.407,237.685 512.407,235.544C512.407,233.476 512.774,232.024 513.507,231.188C514.255,230.337 515.538,229.912 517.357,229.912C519.234,229.912 520.518,230.315 521.207,231.122C521.911,231.914 522.263,233.388 522.263,235.544ZM513.771,235.522C513.771,237.282 514.006,238.455 514.475,239.042C514.959,239.614 515.92,239.9 517.357,239.9C518.736,239.9 519.667,239.592 520.151,238.976C520.65,238.36 520.899,237.209 520.899,235.522C520.899,233.762 520.664,232.596 520.195,232.024C519.726,231.437 518.78,231.144 517.357,231.144C515.964,231.144 515.018,231.452 514.519,232.068C514.02,232.669 513.771,233.821 513.771,235.522ZM536.136,239.174L536.136,240.34C535.755,240.575 535.212,240.773 534.508,240.934C533.804,241.081 533.064,241.154 532.286,241.154C530.746,241.154 529.668,240.743 529.052,239.922C528.436,239.086 528.128,237.627 528.128,235.544C528.128,233.52 528.524,232.075 529.316,231.21C530.123,230.345 531.48,229.912 533.386,229.912C533.812,229.912 534.193,229.927 534.53,229.956C534.868,229.971 535.308,230.015 535.85,230.088L535.85,231.32C535.132,231.232 534.626,231.181 534.332,231.166C534.054,231.151 533.738,231.144 533.386,231.144C531.905,231.144 530.886,231.467 530.328,232.112C529.771,232.757 529.492,233.901 529.492,235.544C529.492,237.216 529.712,238.36 530.152,238.976C530.592,239.592 531.406,239.9 532.594,239.9C533.225,239.9 533.863,239.834 534.508,239.702C535.168,239.555 535.711,239.379 536.136,239.174ZM547.564,235.544C547.564,237.597 547.197,239.049 546.464,239.9C545.73,240.736 544.462,241.154 542.658,241.154C540.766,241.154 539.468,240.758 538.764,239.966C538.06,239.159 537.708,237.685 537.708,235.544C537.708,233.476 538.074,232.024 538.808,231.188C539.556,230.337 540.839,229.912 542.658,229.912C544.535,229.912 545.818,230.315 546.508,231.122C547.212,231.914 547.564,233.388 547.564,235.544ZM539.072,235.522C539.072,237.282 539.306,238.455 539.776,239.042C540.26,239.614 541.22,239.9 542.658,239.9C544.036,239.9 544.968,239.592 545.452,238.976C545.95,238.36 546.2,237.209 546.2,235.522C546.2,233.762 545.965,232.596 545.496,232.024C545.026,231.437 544.08,231.144 542.658,231.144C541.264,231.144 540.318,231.452 539.82,232.068C539.321,232.669 539.072,233.821 539.072,235.522ZM551.499,241L550.135,241L550.135,230.132L551.367,230.132L551.455,231.034L551.499,231.034C552.203,230.623 552.819,230.337 553.347,230.176C553.89,230 554.432,229.912 554.975,229.912C555.591,229.912 556.119,230.015 556.559,230.22C557.014,230.411 557.373,230.697 557.637,231.078L557.681,231.078C558.341,230.682 558.986,230.389 559.617,230.198C560.262,230.007 560.922,229.912 561.597,229.912C562.638,229.912 563.423,230.183 563.951,230.726C564.494,231.254 564.765,232.039 564.765,233.08L564.765,241L563.401,241L563.401,233.234C563.401,232.515 563.21,231.987 562.829,231.65C562.448,231.313 561.854,231.144 561.047,231.144C560.578,231.144 560.086,231.217 559.573,231.364C559.074,231.511 558.561,231.731 558.033,232.024C558.077,232.2 558.106,232.376 558.121,232.552C558.136,232.728 558.143,232.904 558.143,233.08L558.143,241L556.779,241L556.779,233.234C556.779,232.515 556.588,231.987 556.207,231.65C555.826,231.313 555.224,231.144 554.403,231.144C553.992,231.144 553.56,231.217 553.105,231.364C552.65,231.511 552.115,231.76 551.499,232.112L551.499,241ZM569.092,244.344L567.728,244.344L567.728,230.132L568.894,230.132L568.982,231.122L569.07,231.122C569.569,230.726 570.133,230.425 570.764,230.22C571.395,230.015 572.077,229.912 572.81,229.912C574.306,229.912 575.377,230.359 576.022,231.254C576.682,232.134 577.012,233.564 577.012,235.544C577.012,237.539 576.623,238.976 575.846,239.856C575.069,240.721 573.756,241.154 571.908,241.154C571.336,241.154 570.808,241.11 570.324,241.022C569.855,240.949 569.444,240.831 569.092,240.67L569.092,244.344ZM575.648,235.544C575.648,233.931 575.406,232.794 574.922,232.134C574.453,231.474 573.595,231.144 572.348,231.144C571.747,231.144 571.167,231.232 570.61,231.408C570.053,231.584 569.547,231.841 569.092,232.178L569.092,239.394C569.459,239.57 569.862,239.702 570.302,239.79C570.742,239.863 571.226,239.9 571.754,239.9C573.25,239.9 574.269,239.585 574.812,238.954C575.369,238.309 575.648,237.172 575.648,235.544ZM580.906,241L579.542,241L579.542,230.132L580.774,230.132L580.862,231.1L580.928,231.1C581.529,230.763 582.131,230.506 582.732,230.33C583.333,230.154 583.927,230.066 584.514,230.066L585.02,230.066C585.108,230.066 585.181,230.073 585.24,230.088L585.24,231.408C585.137,231.379 585.005,231.364 584.844,231.364C584.697,231.349 584.47,231.342 584.162,231.342C583.605,231.342 583.047,231.415 582.49,231.562C581.933,231.709 581.405,231.921 580.906,232.2L580.906,241ZM589.329,241.154C588.214,241.154 587.393,240.89 586.865,240.362C586.352,239.834 586.095,238.998 586.095,237.854C586.095,236.71 586.41,235.896 587.041,235.412C587.672,234.928 588.742,234.686 590.253,234.686C590.796,234.686 591.324,234.708 591.837,234.752C592.35,234.796 592.849,234.862 593.333,234.95L593.333,233.806C593.333,232.838 593.113,232.156 592.673,231.76C592.233,231.349 591.514,231.144 590.517,231.144C589.842,231.144 589.248,231.173 588.735,231.232C588.236,231.291 587.723,231.386 587.195,231.518L587.195,230.308C587.811,230.161 588.398,230.059 588.955,230C589.527,229.941 590.187,229.912 590.935,229.912C592.226,229.912 593.172,230.22 593.773,230.836C594.389,231.437 594.697,232.391 594.697,233.696L594.697,241L593.465,241L593.399,239.922L593.355,239.922C592.9,240.289 592.306,240.589 591.573,240.824C590.84,241.044 590.092,241.154 589.329,241.154ZM590.407,235.808C589.292,235.808 588.508,235.955 588.053,236.248C587.613,236.541 587.393,237.047 587.393,237.766C587.393,238.529 587.576,239.079 587.943,239.416C588.31,239.753 588.904,239.922 589.725,239.922C590.385,239.922 591.045,239.827 591.705,239.636C592.38,239.431 592.922,239.181 593.333,238.888L593.333,236.072C592.849,235.984 592.365,235.918 591.881,235.874C591.412,235.83 590.92,235.808 590.407,235.808ZM605.062,226.37L606.426,226.37L606.426,241L605.26,241L605.15,239.966L605.062,239.966C604.622,240.362 604.094,240.663 603.478,240.868C602.876,241.059 602.165,241.154 601.344,241.154C599.848,241.154 598.77,240.714 598.11,239.834C597.464,238.939 597.142,237.509 597.142,235.544C597.142,233.535 597.53,232.097 598.308,231.232C599.1,230.352 600.42,229.912 602.268,229.912C602.81,229.912 603.316,229.956 603.786,230.044C604.27,230.132 604.695,230.257 605.062,230.418L605.062,226.37ZM602.4,231.144C600.904,231.144 599.877,231.467 599.32,232.112C598.777,232.757 598.506,233.901 598.506,235.544C598.506,237.143 598.74,238.272 599.21,238.932C599.694,239.577 600.559,239.9 601.806,239.9C602.422,239.9 603.001,239.819 603.544,239.658C604.101,239.497 604.607,239.255 605.062,238.932L605.062,231.628C604.651,231.452 604.233,231.327 603.808,231.254C603.382,231.181 602.913,231.144 602.4,231.144ZM618.833,235.544C618.833,237.597 618.467,239.049 617.733,239.9C617,240.736 615.731,241.154 613.927,241.154C612.035,241.154 610.737,240.758 610.033,239.966C609.329,239.159 608.977,237.685 608.977,235.544C608.977,233.476 609.344,232.024 610.077,231.188C610.825,230.337 612.109,229.912 613.927,229.912C615.805,229.912 617.088,230.315 617.777,231.122C618.481,231.914 618.833,233.388 618.833,235.544ZM610.341,235.522C610.341,237.282 610.576,238.455 611.045,239.042C611.529,239.614 612.49,239.9 613.927,239.9C615.306,239.9 616.237,239.592 616.721,238.976C617.22,238.36 617.469,237.209 617.469,235.522C617.469,233.762 617.235,232.596 616.765,232.024C616.296,231.437 615.35,231.144 613.927,231.144C612.534,231.144 611.588,231.452 611.089,232.068C610.591,232.669 610.341,233.821 610.341,235.522ZM622.769,241L621.405,241L621.405,230.132L622.637,230.132L622.725,231.1L622.791,231.1C623.392,230.763 623.993,230.506 624.595,230.33C625.196,230.154 625.79,230.066 626.377,230.066L626.883,230.066C626.971,230.066 627.044,230.073 627.103,230.088L627.103,231.408C627,231.379 626.868,231.364 626.707,231.364C626.56,231.349 626.333,231.342 626.025,231.342C625.467,231.342 624.91,231.415 624.353,231.562C623.795,231.709 623.267,231.921 622.769,232.2L622.769,241Z" style="fill:rgb(240,157,182);fill-rule:nonzero;"/>
            </g>
        </g>
    </g>
</svg>
