<?xml version="1.0" encoding="UTF-8" standalone="no"?>
<!DOCTYPE svg PUBLIC "-//W3C//DTD SVG 1.1//EN" "http://www.w3.org/Graphics/SVG/1.1/DTD/svg11.dtd">
<svg width="100%" height="100%" viewBox="0 0 662 121" version="1.1" xmlns="http://www.w3.org/2000/svg" xmlns:xlink="http://www.w3.org/1999/xlink" xml:space="preserve" xmlns:serif="http://www.serif.com/" style="fill-rule:evenodd;clip-rule:evenodd;stroke-linejoin:round;stroke-miterlimit:2;">
    <g transform="matrix(1,0,0,1,-258.208333,-750.216879)">
        <g transform="matrix(0.473377,0,0,0.473377,61.533151,408.649605)">
            <g transform="matrix(1,0,0,1,102.50062,39)">
                <g transform="matrix(0.171006,0,0,0.171006,313.769816,679.429828)">
                    <g transform="matrix(4.166667,0,0,4.166667,0,0)">
                        <path d="M454.167,272.927L454.167,149.101L496.492,149.101C499.934,149.101 503.317,149.186 506.646,149.359C509.971,149.531 513.238,149.933 516.45,150.562C519.662,151.193 522.787,152.139 525.829,153.401C528.867,154.661 531.821,156.324 534.687,158.387C538.816,161.368 542.199,165.009 544.841,169.307C547.479,173.607 549.57,178.135 551.12,182.894C552.666,187.653 553.757,192.467 554.387,197.34C555.02,202.213 555.333,206.714 555.333,210.842C555.333,214.97 555.075,219.154 554.562,223.396C554.045,227.638 553.212,231.794 552.066,235.865C550.916,239.934 549.399,243.833 547.504,247.559C545.612,251.287 543.233,254.697 540.366,257.793C537.499,261.002 534.374,263.583 530.987,265.531C527.604,267.479 524.049,268.999 520.32,270.089C516.595,271.177 512.72,271.924 508.708,272.324C504.691,272.726 500.621,272.926 496.491,272.926L454.166,272.926L454.167,272.927ZM465.867,262.952L493.913,262.952C499.188,262.952 504.151,262.637 508.796,262.006C513.438,261.375 518.171,259.798 522.988,257.276C527.117,255.212 530.5,252.403 533.138,248.849C535.78,245.296 537.871,241.426 539.421,237.241C540.967,233.056 542.058,228.671 542.688,224.084C543.321,219.497 543.638,215.084 543.638,210.842C543.638,206.369 543.346,201.813 542.775,197.17C542.2,192.527 541.112,188.112 539.508,183.926C537.9,179.741 535.721,175.901 532.966,172.405C530.216,168.908 526.658,166.012 522.299,163.719C518.628,161.771 514.27,160.509 509.224,159.936C504.174,159.362 499.07,159.076 493.912,159.076L465.866,159.076L465.866,262.953L465.867,262.952Z" style="fill-rule:nonzero;"/>
                    </g>
                    <g transform="matrix(4.166667,0,0,4.166667,0,0)">
                        <path d="M578.558,149.101L590.262,149.101L590.262,222.881C590.262,238.244 593.129,249.308 598.862,256.072C604.6,262.836 613.833,266.219 626.566,266.219C633.216,266.219 638.866,265.33 643.512,263.554C648.158,261.776 651.912,259.081 654.783,255.471C657.65,251.859 659.712,247.359 660.975,241.969C662.238,236.581 662.867,230.217 662.867,222.88L662.867,149.1L674.567,149.1L674.567,226.32C674.567,242.485 670.584,254.84 662.609,263.382C654.638,271.924 642.622,276.194 626.567,276.194C610.392,276.194 598.346,271.837 590.434,263.124C582.517,254.409 578.559,242.141 578.559,226.32L578.559,149.1L578.558,149.101Z" style="fill-rule:nonzero;"/>
                    </g>
                    <g transform="matrix(4.166667,0,0,4.166667,0,0)">
                        <path d="M714.312,164.923L713.97,164.923L713.97,272.928L702.27,272.928L702.27,149.102L715.516,149.102L787.091,257.277L787.437,257.277L787.437,149.102L799.137,149.102L799.137,272.928L785.541,272.928L714.312,164.923Z" style="fill-rule:nonzero;"/>
                    </g>
                    <g transform="matrix(4.166667,0,0,4.166667,0,0)">
                        <path d="M815.479,272.927L864.171,149.101L877.421,149.101L924.904,272.927L912.862,272.927L898.579,234.059L842.15,234.059L827.525,272.927L815.479,272.927ZM846.104,224.085L894.625,224.085L870.367,159.076L846.104,224.085Z" style="fill-rule:nonzero;"/>
                    </g>
                    <g transform="matrix(4.166667,0,0,4.166667,0,0)">
                        <path d="M941.079,272.927L941.079,149.101L958.975,149.101L999.579,258.309L999.925,258.309L1039.838,149.101L1057.563,149.101L1057.563,272.927L1045.863,272.927L1045.863,162.515L1045.517,162.515L1004.913,272.927L993.9,272.927L953.125,162.515L952.779,162.515L952.779,272.927L941.079,272.927Z" style="fill-rule:nonzero;"/>
                    </g>
                    <g transform="matrix(4.166667,0,0,4.166667,0,0)">
                        <rect x="1089.046" y="149.101" width="11.7" height="123.826"/>
                    </g>
                    <g transform="matrix(4.166667,0,0,4.166667,0,0)">
                        <path d="M1137.562,235.951C1138.02,241.455 1139.258,246.126 1141.262,249.968C1143.27,253.808 1145.85,256.933 1149.008,259.34C1152.158,261.749 1155.804,263.496 1159.933,264.586C1164.062,265.676 1168.479,266.219 1173.179,266.219C1178.687,266.219 1183.446,265.531 1187.462,264.155C1191.475,262.779 1194.741,260.916 1197.266,258.566C1199.791,256.216 1201.654,253.493 1202.858,250.398C1204.062,247.301 1204.666,244.034 1204.666,240.594C1204.666,235.78 1203.578,231.881 1201.395,228.9C1199.216,225.919 1196.378,223.481 1192.878,221.59C1189.382,219.698 1185.366,218.178 1180.836,217.034C1176.303,215.887 1171.661,214.769 1166.898,213.679C1162.14,212.589 1157.49,211.301 1152.96,209.809C1148.431,208.319 1144.414,206.312 1140.918,203.789C1137.418,201.266 1134.58,198.028 1132.401,194.072C1130.222,190.117 1129.13,185.102 1129.13,179.024C1129.13,174.782 1130.022,170.654 1131.797,166.642C1133.576,162.628 1136.214,159.074 1139.714,155.979C1143.21,152.882 1147.597,150.419 1152.876,148.584C1158.151,146.749 1164.23,145.832 1171.113,145.832C1178.109,145.832 1184.217,146.806 1189.434,148.757C1194.655,150.705 1198.984,153.37 1202.426,156.753C1205.868,160.136 1208.447,164.063 1210.168,168.534C1211.889,173.005 1212.751,177.764 1212.751,182.809L1201.568,182.809C1201.568,178.107 1200.735,174.038 1199.072,170.598C1197.41,167.158 1195.143,164.349 1192.276,162.17C1189.405,159.992 1186.138,158.387 1182.468,157.356C1178.797,156.323 1175.014,155.808 1171.114,155.808C1165.147,155.808 1160.131,156.64 1156.056,158.302C1151.985,159.964 1148.748,162.114 1146.335,164.752C1143.927,167.388 1142.264,170.313 1141.347,173.523C1140.43,176.732 1140.255,179.942 1140.83,183.153C1141.522,187.165 1143.122,190.375 1145.647,192.785C1148.172,195.192 1151.268,197.17 1154.939,198.717C1158.61,200.265 1162.656,201.527 1167.068,202.502C1171.485,203.476 1175.985,204.507 1180.576,205.597C1185.164,206.687 1189.609,207.976 1193.909,209.467C1198.209,210.957 1202.026,212.964 1205.351,215.487C1208.68,218.009 1211.343,221.249 1213.351,225.204C1215.359,229.159 1216.364,234.117 1216.364,240.08C1216.364,251.546 1212.406,260.431 1204.489,266.737C1196.577,273.042 1185.452,276.196 1171.114,276.196C1164.689,276.196 1158.727,275.366 1153.218,273.702C1147.714,272.04 1142.955,269.517 1138.939,266.136C1134.922,262.753 1131.797,258.568 1129.56,253.58C1127.327,248.594 1126.206,242.717 1126.206,235.953L1137.56,235.953L1137.562,235.951Z" style="fill-rule:nonzero;"/>
                    </g>
                    <g transform="matrix(4.166667,0,0,4.166667,0,0)">
                        <rect x="1241.487" y="257.794" width="12.558" height="15.133"/>
                    </g>
                    <g transform="matrix(4.166667,0,0,4.166667,0,0)">
                        <path d="M1297.404,262.953L1327.167,262.953C1333.592,262.953 1339.184,262.667 1343.946,262.093C1348.704,261.521 1352.634,260.345 1355.729,258.568C1358.825,256.791 1361.15,254.268 1362.7,251.001C1364.246,247.733 1365.021,243.405 1365.021,238.016C1365.021,232.857 1364.163,228.701 1362.442,225.547C1360.721,222.395 1358.254,219.958 1355.042,218.239C1351.83,216.518 1347.988,215.343 1343.513,214.711C1339.042,214.082 1334.051,213.766 1328.546,213.766L1297.404,213.766L1297.404,262.954L1297.404,262.953ZM1297.403,203.791L1326.996,203.791C1333.075,203.791 1338.179,203.276 1342.308,202.245C1346.437,201.212 1349.766,199.694 1352.287,197.687C1354.812,195.68 1356.616,193.216 1357.708,190.292C1358.8,187.367 1359.341,184.015 1359.341,180.232C1359.341,176.333 1358.712,173.036 1357.449,170.342C1356.186,167.647 1354.182,165.469 1351.428,163.807C1348.674,162.143 1345.09,160.939 1340.674,160.194C1336.257,159.449 1330.837,159.076 1324.416,159.076L1297.403,159.076L1297.403,203.791ZM1285.704,272.928L1285.704,149.102L1330.437,149.102C1337.666,149.102 1343.858,149.847 1349.02,151.338C1354.183,152.828 1358.395,154.948 1361.666,157.7C1364.933,160.452 1367.316,163.748 1368.803,167.59C1370.295,171.43 1371.041,175.645 1371.041,180.231C1371.041,184.586 1370.466,188.343 1369.32,191.494C1368.174,194.648 1366.682,197.284 1364.849,199.405C1363.011,201.528 1360.92,203.19 1358.57,204.393C1356.216,205.596 1353.778,206.428 1351.253,206.887L1351.253,207.23C1359.857,208.492 1366.253,211.873 1370.441,217.377C1374.624,222.881 1376.72,229.761 1376.72,238.015C1376.72,244.436 1375.716,249.881 1373.707,254.354C1371.703,258.825 1368.92,262.437 1365.361,265.189C1361.807,267.939 1357.536,269.918 1352.544,271.121C1347.557,272.324 1342.136,272.927 1336.286,272.927L1285.703,272.927L1285.704,272.928Z" style="fill-rule:nonzero;"/>
                    </g>
                    <g transform="matrix(4.166667,0,0,4.166667,0,0)">
                        <path d="M1448.467,206.715C1452.825,206.715 1456.867,206.256 1460.596,205.339C1464.325,204.421 1467.567,202.96 1470.317,200.953C1473.071,198.946 1475.25,196.395 1476.855,193.3C1478.463,190.205 1479.263,186.479 1479.263,182.122C1479.263,177.536 1478.434,173.753 1476.767,170.772C1475.104,167.791 1472.867,165.44 1470.059,163.719C1467.251,162 1464.038,160.797 1460.426,160.109C1456.814,159.421 1453.055,159.076 1449.155,159.076L1411.992,159.076L1411.992,206.715L1448.467,206.715ZM1411.992,216.69L1411.992,272.928L1400.292,272.928L1400.292,149.102L1448.813,149.102C1462.459,149.102 1472.9,151.653 1480.125,156.755C1487.35,161.857 1490.963,170.141 1490.963,181.606C1490.963,189.403 1489.388,195.595 1486.234,200.181C1483.08,204.768 1477.946,208.664 1470.834,211.875C1474.505,213.138 1477.372,214.972 1479.438,217.379C1481.5,219.786 1483.051,222.538 1484.084,225.635C1485.113,228.73 1485.771,231.998 1486.059,235.437C1486.346,238.877 1486.551,242.201 1486.663,245.412C1486.78,250.112 1486.976,254.011 1487.267,257.107C1487.55,260.202 1487.896,262.725 1488.296,264.673C1488.7,266.623 1489.188,268.141 1489.758,269.231C1490.333,270.321 1491.021,271.151 1491.825,271.725L1491.825,272.928L1478.921,272.928C1477.658,270.864 1476.767,267.998 1476.254,264.329C1475.737,260.66 1475.333,256.818 1475.05,252.806C1474.763,248.794 1474.533,244.896 1474.358,241.113C1474.187,237.328 1473.875,234.233 1473.412,231.824C1472.724,228.5 1471.608,225.835 1470.058,223.828C1468.512,221.821 1466.646,220.303 1464.466,219.27C1462.287,218.239 1459.849,217.551 1457.154,217.206C1454.458,216.863 1451.679,216.691 1448.812,216.691L1411.991,216.691L1411.992,216.69Z" style="fill-rule:nonzero;"/>
                    </g>
                    <g transform="matrix(4.166667,0,0,4.166667,0,0)">
                        <path d="M1510.408,211.186C1510.408,202.129 1511.637,193.644 1514.104,185.733C1516.571,177.823 1520.212,170.914 1525.029,165.011C1529.85,159.105 1535.812,154.433 1542.925,150.993C1550.037,147.553 1558.237,145.834 1567.525,145.834C1577.163,145.834 1585.621,147.525 1592.904,150.908C1600.187,154.289 1606.271,158.934 1611.146,164.838C1616.021,170.743 1619.688,177.678 1622.154,185.648C1624.621,193.615 1625.854,202.129 1625.854,211.186C1625.854,220.13 1624.621,228.528 1622.154,236.381C1619.687,244.235 1616.046,251.115 1611.229,257.018C1606.412,262.923 1600.387,267.596 1593.162,271.035C1585.937,274.475 1577.566,276.194 1568.041,276.194C1558.52,276.194 1550.149,274.475 1542.924,271.035C1535.699,267.595 1529.674,262.923 1524.857,257.018C1520.04,251.114 1516.428,244.235 1514.015,236.381C1511.611,228.527 1510.407,220.129 1510.407,211.186L1510.408,211.186ZM1568.216,266.22C1576.245,266.22 1583.158,264.7 1588.949,261.662C1594.741,258.624 1599.499,254.583 1603.228,249.538C1606.953,244.493 1609.707,238.646 1611.486,231.996C1613.265,225.346 1614.153,218.409 1614.153,211.186C1614.153,202.587 1613.091,194.877 1610.97,188.054C1608.849,181.233 1605.778,175.415 1601.766,170.599C1597.754,165.783 1592.878,162.114 1587.141,159.591C1581.408,157.068 1574.983,155.808 1567.87,155.808C1559.957,155.808 1553.103,157.356 1547.312,160.451C1541.52,163.546 1536.758,167.645 1533.029,172.747C1529.304,177.849 1526.55,183.726 1524.775,190.374C1522.996,197.024 1522.104,203.961 1522.104,211.184C1522.104,218.522 1522.996,225.516 1524.775,232.166C1526.55,238.816 1529.304,244.663 1533.029,249.708C1536.758,254.751 1541.521,258.765 1547.312,261.746C1553.104,264.727 1560.07,266.217 1568.216,266.217L1568.216,266.22Z" style="fill-rule:nonzero;"/>
                    </g>
                    <g transform="matrix(4.166667,0,0,4.166667,0,0)">
                        <path d="M1649.767,272.927L1649.767,149.101L1661.467,149.101L1661.467,213.25L1724.959,149.101L1738.205,149.101L1689.343,198.459L1746.81,272.927L1732.531,272.927L1680.914,205.682L1661.468,225.116L1661.468,272.928L1649.768,272.928L1649.767,272.927Z" style="fill-rule:nonzero;"/>
                    </g>
                    <g transform="matrix(4.166667,0,0,4.166667,0,0)">
                        <path d="M1763.842,272.927L1763.842,149.101L1846.254,149.101L1846.254,159.076L1775.541,159.076L1775.541,203.791L1839.37,203.791L1839.37,213.766L1775.541,213.766L1775.541,262.954L1847.974,262.954L1847.974,272.929L1763.841,272.929L1763.842,272.927Z" style="fill-rule:nonzero;"/>
                    </g>
                    <g transform="matrix(4.166667,0,0,4.166667,0,0)">
                        <path d="M1916.971,206.715C1921.329,206.715 1925.375,206.256 1929.1,205.339C1932.829,204.421 1936.067,202.96 1938.821,200.953C1941.575,198.946 1943.754,196.395 1945.359,193.3C1946.967,190.205 1947.767,186.479 1947.767,182.122C1947.767,177.536 1946.938,173.753 1945.275,170.772C1943.608,167.791 1941.375,165.44 1938.563,163.719C1935.755,162 1932.542,160.797 1928.93,160.109C1925.313,159.421 1921.559,159.076 1917.659,159.076L1880.497,159.076L1880.497,206.715L1916.972,206.715L1916.971,206.715ZM1880.496,216.69L1880.496,272.928L1868.796,272.928L1868.796,149.102L1917.317,149.102C1930.963,149.102 1941.405,151.653 1948.629,156.755C1955.854,161.857 1959.466,170.141 1959.466,181.606C1959.466,189.403 1957.891,195.595 1954.737,200.181C1951.583,204.768 1946.45,208.664 1939.337,211.875C1943.008,213.138 1945.875,214.972 1947.941,217.379C1950.003,219.786 1951.553,222.538 1952.583,225.635C1953.616,228.73 1954.275,231.998 1954.566,235.437C1954.849,238.877 1955.049,242.201 1955.166,245.412C1955.283,250.112 1955.483,254.011 1955.766,257.107C1956.053,260.202 1956.399,262.725 1956.799,264.673C1957.203,266.623 1957.687,268.141 1958.262,269.231C1958.837,270.321 1959.524,271.151 1960.329,271.725L1960.329,272.928L1947.425,272.928C1946.162,270.864 1945.275,267.998 1944.758,264.329C1944.241,260.66 1943.837,256.818 1943.554,252.806C1943.267,248.794 1943.037,244.896 1942.862,241.113C1942.691,237.328 1942.375,234.233 1941.916,231.824C1941.228,228.5 1940.112,225.835 1938.562,223.828C1937.016,221.821 1935.149,220.303 1932.97,219.27C1930.791,218.239 1928.353,217.551 1925.658,217.206C1922.962,216.863 1920.183,216.691 1917.316,216.691L1880.495,216.691L1880.496,216.69Z" style="fill-rule:nonzero;"/>
                    </g>
                </g>
                <g transform="matrix(0.710735,0,0,0.710735,312.972297,682.554949)">
                    <path d="M358.333,278.746L358.287,278.746L358.287,313.148C358.287,325.298 353.736,336.572 344.888,345.149C335.965,353.726 324.019,358.514 311.483,358.514L47.189,358.514C34.655,358.514 22.63,353.725 13.789,345.149C4.939,336.572 0,324.922 0,312.773L0,131.095C0,115.801 7.886,101.506 21.011,93.001C52.201,72.847 119.091,29.678 153.155,7.665C169.009,-2.555 189.661,-2.555 205.515,7.665C239.584,29.678 306.468,72.847 337.661,93.001C349.195,100.474 356.685,112.416 358.333,125.58L358.333,278.747L358.333,278.746ZM179.37,290.855C205.602,290.855 226.244,281.029 241.271,261.378C253.931,245.046 260.327,225.395 260.459,202.424C260.591,179.321 254.461,159.537 242.066,143.072C227.303,123.419 206.853,113.594 180.753,113.594L97.873,113.594C103.943,140.814 106.973,170.357 106.973,202.224C106.973,234.091 103.943,263.634 97.873,290.854L179.37,290.854L179.37,290.855ZM144.95,253.413L144.95,197.644C144.95,176.267 148.941,158.044 156.912,142.972C164.895,127.902 175.078,120.367 187.472,120.367C189.84,120.367 192.017,120.632 194,121.164C203.366,123.288 210.519,131.421 215.46,145.561C220.401,159.703 221.495,178.79 218.73,202.823C215.953,226.59 208.895,246.108 197.559,261.379C186.222,276.648 175.15,284.283 164.329,284.283C158.522,284.283 153.846,281.693 150.288,276.516C146.729,271.338 144.95,263.636 144.95,253.413Z"/>
                </g>
            </g>
        </g>
    </g>
</svg>
