<?xml version="1.0" encoding="UTF-8" standalone="no"?>
<!DOCTYPE svg PUBLIC "-//W3C//DTD SVG 1.1//EN" "http://www.w3.org/Graphics/SVG/1.1/DTD/svg11.dtd">
<svg width="100%" height="100%" viewBox="0 0 744 184" version="1.1" xmlns="http://www.w3.org/2000/svg" xmlns:xlink="http://www.w3.org/1999/xlink" xml:space="preserve" xmlns:serif="http://www.serif.com/" style="fill-rule:evenodd;clip-rule:evenodd;stroke-linejoin:round;stroke-miterlimit:2;">
    <g transform="matrix(1,0,0,1,-142.584504,-310.702753)">
        <g transform="matrix(1,0,0,1,32,151.767317)">
            <g transform="matrix(1.390038,0,0,0.372933,-60.883707,88.783451)">
                <path d="M273.899,325.801L297.818,325.801L297.818,365.425L285.255,365.425L285.255,411.712L296.852,411.712L296.852,451.336L285.255,451.336L285.255,540.129L273.899,540.129L273.899,325.801Z" style="fill-rule:nonzero;"/>
            </g>
        </g>
        <g transform="matrix(1,0,0,1,32,151.767317)">
            <g transform="matrix(1.390038,0,0,0.372933,-60.883707,88.783451)">
                <path d="M302.167,540.129L302.167,325.801L313.523,325.801L313.523,500.505L325.361,500.505L325.361,540.129L302.167,540.129Z" style="fill-rule:nonzero;"/>
            </g>
        </g>
        <g transform="matrix(1,0,0,1,32,151.767317)">
            <g transform="matrix(1.390038,0,0,0.372933,-60.883707,88.783451)">
                <path d="M327.294,540.129L336.282,325.801L352.518,325.801L361.505,540.129L350.15,540.129L348.459,490.96L340.341,490.96L338.65,540.129L327.294,540.129ZM341.694,451.336L347.106,451.336L345.173,384.156C345.108,381.394 345.06,378.903 345.028,376.681C344.996,374.46 344.963,372.059 344.931,369.477C344.899,366.896 344.883,363.744 344.883,360.022L343.917,360.022L343.917,367.766C343.884,368.727 343.868,369.627 343.868,370.468C343.868,371.668 343.852,372.899 343.82,374.16C343.788,375.421 343.772,376.651 343.772,377.852C343.772,380.254 343.723,382.355 343.627,384.156L341.694,451.336Z" style="fill-rule:nonzero;"/>
            </g>
        </g>
        <g transform="matrix(1,0,0,1,32,151.767317)">
            <g transform="matrix(1.390038,0,0,0.372933,-60.883707,88.783451)">
                <path d="M364.888,540.129L364.888,325.801L376.243,325.801L376.243,400.906L384.7,400.906L384.7,325.801L396.055,325.801L396.055,540.129L384.7,540.129L384.7,440.53L376.243,440.53L376.243,540.129L364.888,540.129Z" style="fill-rule:nonzero;"/>
            </g>
        </g>
        <g transform="matrix(1,0,0,1,32,151.767317)">
            <g transform="matrix(1.390038,0,0,0.372933,-60.883707,88.783451)">
                <path d="M400.404,431.704C400.404,419.817 400.903,408.56 401.902,397.934C402.9,387.308 404.302,377.432 406.106,368.306C407.878,359.301 409.996,351.496 412.46,344.892C414.924,338.289 417.574,333.185 420.409,329.583C421.826,327.782 423.3,326.401 424.83,325.441C426.36,324.48 427.915,324 429.493,324C432.747,324 435.807,325.891 438.674,329.673C441.541,333.456 444.167,338.529 446.55,344.892C449.289,352.457 451.511,360.892 453.219,370.198C454.926,379.503 456.199,388.719 457.036,397.844C457.519,403.247 457.89,408.771 458.148,414.414C458.405,420.057 458.534,425.821 458.534,431.704C458.534,443.471 458.043,454.938 457.06,466.105C456.078,477.272 454.701,487.478 452.929,496.723C451.125,505.849 448.991,513.803 446.526,520.587C444.062,527.371 441.428,532.565 438.626,536.167C435.694,540.009 432.65,541.93 429.493,541.93C426.272,541.93 423.211,540.009 420.312,536.167C417.413,532.324 414.771,527.101 412.387,520.497C409.971,513.773 407.869,505.909 406.082,496.903C404.294,487.898 402.9,477.692 401.902,466.285C401.419,460.882 401.048,455.268 400.79,449.445C400.533,443.621 400.404,437.708 400.404,431.704ZM411.759,432.065C411.759,439.389 412.065,446.593 412.677,453.677C413.289,460.762 414.127,467.005 415.19,472.409C416.35,478.412 417.671,483.485 419.152,487.628C420.634,491.77 422.229,494.862 423.936,496.903C425.74,499.305 427.609,500.505 429.541,500.505C431.474,500.505 433.327,499.335 435.098,496.993C436.87,494.652 438.481,491.38 439.931,487.177C441.38,483.095 442.653,478.202 443.748,472.499C444.843,466.795 445.681,460.522 446.261,453.677C446.55,450.315 446.776,446.833 446.937,443.231C447.098,439.629 447.179,435.907 447.179,432.065C447.179,424.98 446.873,418.046 446.261,411.262C445.648,404.478 444.811,398.384 443.748,392.981C441.493,381.574 438.594,373.53 435.05,368.847C433.278,366.565 431.442,365.425 429.541,365.425C427.995,365.425 426.32,366.355 424.516,368.216C422.712,370.078 420.908,373.47 419.104,378.392C417.622,382.475 416.326,387.278 415.214,392.801C414.103,398.324 413.257,404.388 412.677,410.992C412.387,414.354 412.162,417.806 412.001,421.348C411.84,424.89 411.759,428.462 411.759,432.065Z" style="fill-rule:nonzero;"/>
            </g>
        </g>
        <g transform="matrix(1,0,0,1,32,151.767317)">
            <g transform="matrix(1.390038,0,0,0.372933,-60.883707,88.783451)">
                <path d="M461.433,431.704C461.433,419.817 461.933,408.56 462.931,397.934C463.93,387.308 465.331,377.432 467.135,368.306C468.907,359.301 471.025,351.496 473.489,344.892C475.954,338.289 478.603,333.185 481.438,329.583C482.856,327.782 484.33,326.401 485.86,325.441C487.39,324.48 488.944,324 490.523,324C493.776,324 496.837,325.891 499.704,329.673C502.571,333.456 505.196,338.529 507.58,344.892C510.318,352.457 512.541,360.892 514.248,370.198C515.956,379.503 517.228,388.719 518.066,397.844C518.549,403.247 518.919,408.771 519.177,414.414C519.435,420.057 519.564,425.821 519.564,431.704C519.564,443.471 519.072,454.938 518.09,466.105C517.107,477.272 515.73,487.478 513.958,496.723C512.154,505.849 510.02,513.803 507.556,520.587C505.091,527.371 502.458,532.565 499.655,536.167C496.724,540.009 493.68,541.93 490.523,541.93C487.301,541.93 484.241,540.009 481.342,536.167C478.442,532.324 475.801,527.101 473.417,520.497C471.001,513.773 468.899,505.909 467.111,496.903C465.323,487.898 463.93,477.692 462.931,466.285C462.448,460.882 462.078,455.268 461.82,449.445C461.562,443.621 461.433,437.708 461.433,431.704ZM472.789,432.065C472.789,439.389 473.095,446.593 473.707,453.677C474.319,460.762 475.157,467.005 476.22,472.409C477.379,478.412 478.7,483.485 480.182,487.628C481.664,491.77 483.258,494.862 484.966,496.903C486.77,499.305 488.638,500.505 490.571,500.505C492.504,500.505 494.356,499.335 496.128,496.993C497.9,494.652 499.51,491.38 500.96,487.177C502.41,483.095 503.682,478.202 504.777,472.499C505.873,466.795 506.71,460.522 507.29,453.677C507.58,450.315 507.806,446.833 507.967,443.231C508.128,439.629 508.208,435.907 508.208,432.065C508.208,424.98 507.902,418.046 507.29,411.262C506.678,404.478 505.84,398.384 504.777,392.981C502.522,381.574 499.623,373.53 496.08,368.847C494.308,366.565 492.472,365.425 490.571,365.425C489.025,365.425 487.35,366.355 485.546,368.216C483.742,370.078 481.938,373.47 480.134,378.392C478.652,382.475 477.355,387.278 476.244,392.801C475.132,398.324 474.287,404.388 473.707,410.992C473.417,414.354 473.192,417.806 473.03,421.348C472.869,424.89 472.789,428.462 472.789,432.065Z" style="fill-rule:nonzero;"/>
            </g>
        </g>
        <g transform="matrix(1,0,0,1,32,151.767317)">
            <g transform="matrix(1.390038,0,0,0.372933,-60.883707,88.783451)">
                <path d="M523.913,540.129L523.913,325.801L535.268,325.801L535.268,500.505L547.107,500.505L547.107,540.129L523.913,540.129Z" style="fill-rule:nonzero;"/>
            </g>
        </g>
        <g transform="matrix(1,0,0,1,32,151.767317)">
            <g transform="matrix(1.390038,0,0,0.372933,-60.883707,88.783451)">
                <rect x="551.456" y="325.801" width="11.355" height="214.328" style="fill-rule:nonzero;"/>
            </g>
        </g>
        <g transform="matrix(1,0,0,1,32,151.767317)">
            <g transform="matrix(1.390038,0,0,0.372933,-60.883707,88.783451)">
                <path d="M578.515,433.325C578.515,440.65 578.765,447.734 579.264,454.578C579.764,461.422 580.545,467.906 581.608,474.03C582.542,479.433 583.71,484.176 585.111,488.258C586.513,492.341 588.051,495.342 589.726,497.263C591.465,499.425 593.286,500.505 595.186,500.505C598.311,500.505 601.065,497.804 603.449,492.401C605.801,486.997 607.605,479.553 608.861,470.067C609.151,467.786 609.409,465.354 609.634,462.773C609.86,460.191 610.053,457.52 610.214,454.758L621.811,454.758C621.553,465.204 620.917,474.69 619.902,483.215C618.888,491.74 617.591,499.545 616.013,506.629C612.694,521.518 608.474,531.844 603.352,537.608C600.775,540.489 598.085,541.93 595.283,541.93C592.48,541.93 589.653,540.309 586.802,537.067C583.951,533.825 581.189,528.482 578.515,521.038C576.164,514.554 574.134,506.659 572.427,497.353C570.72,488.048 569.431,478.112 568.561,467.546C568.11,462.142 567.764,456.559 567.522,450.796C567.281,445.032 567.16,439.089 567.16,432.965C567.16,420.478 567.635,408.801 568.585,397.934C569.536,387.068 570.832,377.192 572.475,368.306C574.311,358.581 576.454,350.446 578.902,343.902C581.35,337.358 583.798,332.525 586.247,329.403C587.664,327.722 589.13,326.401 590.644,325.441C592.158,324.48 593.704,324 595.283,324C600.824,324 605.849,329.463 610.359,340.39C612.517,345.673 614.418,352.007 616.061,359.391C617.704,366.776 619.008,374.67 619.975,383.075C620.941,391.72 621.553,401.086 621.811,411.172L610.214,411.172C609.956,405.769 609.497,400.636 608.837,395.773C608.176,390.91 607.411,386.677 606.542,383.075C605.64,379.473 604.609,376.321 603.449,373.62C602.289,370.918 601.017,368.847 599.632,367.406C598.182,366.085 596.7,365.425 595.186,365.425C593.124,365.425 591.24,366.595 589.533,368.937C587.825,371.278 586.359,374.19 585.135,377.672C582.333,385.957 580.4,397.004 579.337,410.812C579.047,414.294 578.838,417.926 578.709,421.708C578.58,425.491 578.515,429.363 578.515,433.325Z" style="fill-rule:nonzero;"/>
            </g>
        </g>
        <g transform="matrix(1,0,0,1,32,151.767317)">
            <g transform="matrix(1.390038,0,0,0.372933,-60.883707,88.783451)">
                <path d="M637.515,325.801L637.515,365.065C637.515,368.066 637.475,371.188 637.395,374.43C637.314,377.672 637.193,381.214 637.032,385.056C636.839,388.899 636.646,392.861 636.452,396.944C636.259,401.026 636.017,405.289 635.728,409.731C635.566,411.892 635.421,414.054 635.293,416.215C635.132,418.496 634.97,420.778 634.809,423.059L635.776,423.059C635.872,421.618 636.009,419.487 636.187,416.665C636.364,413.844 636.565,410.992 636.791,408.11C637.016,405.228 637.225,402.767 637.419,400.726C637.741,396.884 637.991,393.972 638.168,391.991C638.345,390.009 638.53,388.058 638.723,386.137C638.917,384.216 639.207,381.514 639.593,378.032C639.786,376.231 639.98,374.46 640.173,372.719C640.366,370.978 640.56,369.327 640.753,367.766L645.972,325.801L657.327,325.801L646.455,409.731L658.293,540.129L646.938,540.129L639.352,456.559L637.515,466.645L637.515,540.129L626.16,540.129L626.16,325.801L637.515,325.801Z" style="fill-rule:nonzero;"/>
            </g>
        </g>
        <g transform="matrix(1,0,0,1,32,151.767317)">
            <g transform="matrix(-0.944537,0,-0,-0.944537,533.90561,868.367255)">
                <path d="M262,647.911C262,596.499 303.677,556.939 355.089,556.939C406.501,556.939 448.178,596.499 448.178,647.911L448.178,751.089L262,751.089L262,647.911Z"/>
            </g>
        </g>
    </g>
</svg>
