<?xml version="1.0" encoding="UTF-8" standalone="no"?>
<!DOCTYPE svg PUBLIC "-//W3C//DTD SVG 1.1//EN" "http://www.w3.org/Graphics/SVG/1.1/DTD/svg11.dtd">
<svg width="100%" height="100%" viewBox="0 0 531 284" version="1.1" xmlns="http://www.w3.org/2000/svg" xmlns:xlink="http://www.w3.org/1999/xlink" xml:space="preserve" xmlns:serif="http://www.serif.com/" style="fill-rule:evenodd;clip-rule:evenodd;stroke-linejoin:round;stroke-miterlimit:2;">
    <g transform="matrix(1,0,0,1,-1338.182778,-588.690907)">
        <g id="FLAHOOLICK-BUC" serif:id="FLAHOOLICK BUC" transform="matrix(1,0,0,1,1220.297862,-3.191746)">
            <g transform="matrix(-0.944537,0,-0,-0.944537,710.113215,1301.314472)">
                <path d="M262,647.911C262,596.499 303.677,556.939 355.089,556.939C406.501,556.939 448.178,596.499 448.178,647.911L448.178,751.089L262,751.089L262,647.911Z"/>
            </g>
            <g transform="matrix(4.054578,0,0,0.56235,-4729.077882,688.560638)">
                <path d="M1195.43,189.186L1203.568,189.186L1203.568,215.267L1199.293,215.267L1199.293,245.734L1203.24,245.734L1203.24,271.815L1199.293,271.815L1199.293,330.26L1195.43,330.26L1195.43,189.186Z" style="fill:rgb(33,33,33);fill-rule:nonzero;"/>
                <path d="M1205.048,330.26L1205.048,189.186L1208.912,189.186L1208.912,304.179L1212.941,304.179L1212.941,330.26L1205.048,330.26Z" style="fill:rgb(33,33,33);fill-rule:nonzero;"/>
                <path d="M1213.598,330.26L1216.657,189.186L1222.181,189.186L1225.239,330.26L1221.376,330.26L1220.8,297.896L1218.038,297.896L1217.462,330.26L1213.598,330.26ZM1218.498,271.815L1220.34,271.815L1219.682,227.596C1219.66,225.778 1219.644,224.138 1219.633,222.676C1219.622,221.214 1219.611,219.633 1219.6,217.934C1219.589,216.235 1219.583,214.16 1219.583,211.71L1219.254,211.71L1219.254,216.808C1219.243,217.44 1219.238,218.033 1219.238,218.586C1219.238,219.376 1219.233,220.186 1219.222,221.016C1219.211,221.846 1219.205,222.656 1219.205,223.447C1219.205,225.027 1219.189,226.41 1219.156,227.596L1218.498,271.815Z" style="fill:rgb(33,33,33);fill-rule:nonzero;"/>
                <path d="M1226.39,330.26L1226.39,189.186L1230.254,189.186L1230.254,238.621L1233.132,238.621L1233.132,189.186L1236.996,189.186L1236.996,330.26L1233.132,330.26L1233.132,264.702L1230.254,264.702L1230.254,330.26L1226.39,330.26Z" style="fill:rgb(33,33,33);fill-rule:nonzero;"/>
                <path d="M1238.476,258.893C1238.476,251.069 1238.645,243.659 1238.985,236.665C1239.325,229.67 1239.802,223.17 1240.416,217.163C1241.019,211.236 1241.739,206.099 1242.578,201.752C1243.416,197.405 1244.318,194.046 1245.283,191.675C1245.765,190.49 1246.266,189.581 1246.787,188.948C1247.308,188.316 1247.837,188 1248.374,188C1249.481,188 1250.522,189.245 1251.498,191.734C1252.473,194.224 1253.367,197.563 1254.178,201.752C1255.11,206.731 1255.866,212.283 1256.447,218.408C1257.028,224.533 1257.461,230.599 1257.746,236.606C1257.91,240.162 1258.036,243.798 1258.124,247.512C1258.212,251.227 1258.256,255.02 1258.256,258.893C1258.256,266.638 1258.088,274.186 1257.754,281.536C1257.42,288.886 1256.951,295.604 1256.348,301.69C1255.734,307.696 1255.008,312.932 1254.17,317.398C1253.331,321.863 1252.435,325.281 1251.481,327.652C1250.484,330.181 1249.448,331.446 1248.374,331.446C1247.278,331.446 1246.236,330.181 1245.25,327.652C1244.263,325.123 1243.364,321.685 1242.553,317.338C1241.731,312.912 1241.016,307.736 1240.407,301.808C1239.799,295.881 1239.325,289.163 1238.985,281.655C1238.821,278.098 1238.695,274.403 1238.607,270.57C1238.519,266.737 1238.476,262.845 1238.476,258.893ZM1242.339,259.13C1242.339,263.951 1242.444,268.693 1242.652,273.356C1242.86,278.019 1243.145,282.129 1243.507,285.685C1243.901,289.637 1244.351,292.976 1244.855,295.703C1245.359,298.429 1245.902,300.465 1246.483,301.808C1247.097,303.389 1247.733,304.179 1248.39,304.179C1249.048,304.179 1249.678,303.409 1250.281,301.867C1250.884,300.326 1251.432,298.173 1251.925,295.406C1252.419,292.719 1252.852,289.499 1253.224,285.745C1253.597,281.991 1253.882,277.861 1254.079,273.356C1254.178,271.143 1254.255,268.851 1254.309,266.48C1254.364,264.109 1254.392,261.659 1254.392,259.13C1254.392,254.467 1254.288,249.903 1254.079,245.438C1253.871,240.972 1253.586,236.961 1253.224,233.405C1252.457,225.897 1251.47,220.601 1250.265,217.519C1249.662,216.017 1249.037,215.267 1248.39,215.267C1247.864,215.267 1247.294,215.879 1246.68,217.104C1246.066,218.329 1245.453,220.562 1244.839,223.802C1244.334,226.489 1243.893,229.651 1243.515,233.286C1243.137,236.922 1242.849,240.913 1242.652,245.26C1242.553,247.473 1242.476,249.745 1242.422,252.076C1242.367,254.408 1242.339,256.759 1242.339,259.13Z" style="fill:rgb(33,33,33);fill-rule:nonzero;"/>
                <path d="M1259.242,258.893C1259.242,251.069 1259.412,243.659 1259.752,236.665C1260.092,229.67 1260.569,223.17 1261.182,217.163C1261.785,211.236 1262.506,206.099 1263.345,201.752C1264.183,197.405 1265.085,194.046 1266.049,191.675C1266.532,190.49 1267.033,189.581 1267.554,188.948C1268.074,188.316 1268.603,188 1269.14,188C1270.248,188 1271.289,189.245 1272.264,191.734C1273.24,194.224 1274.133,197.563 1274.945,201.752C1275.876,206.731 1276.633,212.283 1277.214,218.408C1277.795,224.533 1278.228,230.599 1278.513,236.606C1278.677,240.162 1278.803,243.798 1278.891,247.512C1278.978,251.227 1279.022,255.02 1279.022,258.893C1279.022,266.638 1278.855,274.186 1278.521,281.536C1278.186,288.886 1277.718,295.604 1277.115,301.69C1276.501,307.696 1275.775,312.932 1274.936,317.398C1274.098,321.863 1273.202,325.281 1272.248,327.652C1271.251,330.181 1270.215,331.446 1269.14,331.446C1268.044,331.446 1267.003,330.181 1266.016,327.652C1265.03,325.123 1264.131,321.685 1263.32,317.338C1262.498,312.912 1261.783,307.736 1261.174,301.808C1260.566,295.881 1260.092,289.163 1259.752,281.655C1259.587,278.098 1259.461,274.403 1259.374,270.57C1259.286,266.737 1259.242,262.845 1259.242,258.893ZM1263.106,259.13C1263.106,263.951 1263.21,268.693 1263.419,273.356C1263.627,278.019 1263.912,282.129 1264.274,285.685C1264.668,289.637 1265.118,292.976 1265.622,295.703C1266.126,298.429 1266.669,300.465 1267.25,301.808C1267.863,303.389 1268.499,304.179 1269.157,304.179C1269.815,304.179 1270.445,303.409 1271.048,301.867C1271.651,300.326 1272.199,298.173 1272.692,295.406C1273.185,292.719 1273.618,289.499 1273.991,285.745C1274.364,281.991 1274.649,277.861 1274.846,273.356C1274.945,271.143 1275.021,268.851 1275.076,266.48C1275.131,264.109 1275.158,261.659 1275.158,259.13C1275.158,254.467 1275.054,249.903 1274.846,245.438C1274.638,240.972 1274.353,236.961 1273.991,233.405C1273.224,225.897 1272.237,220.601 1271.031,217.519C1270.428,216.017 1269.804,215.267 1269.157,215.267C1268.631,215.267 1268.061,215.879 1267.447,217.104C1266.833,218.329 1266.219,220.562 1265.605,223.802C1265.101,226.489 1264.66,229.651 1264.282,233.286C1263.904,236.922 1263.616,240.913 1263.419,245.26C1263.32,247.473 1263.243,249.745 1263.188,252.076C1263.134,254.408 1263.106,256.759 1263.106,259.13Z" style="fill:rgb(33,33,33);fill-rule:nonzero;"/>
                <path d="M1280.502,330.26L1280.502,189.186L1284.366,189.186L1284.366,304.179L1288.394,304.179L1288.394,330.26L1280.502,330.26Z" style="fill:rgb(33,33,33);fill-rule:nonzero;"/>
                <rect x="1289.874" y="189.186" width="3.864" height="141.075" style="fill:rgb(33,33,33);fill-rule:nonzero;"/>
                <path d="M1299.082,259.96C1299.082,264.781 1299.167,269.444 1299.337,273.949C1299.507,278.454 1299.772,282.722 1300.134,286.752C1300.452,290.309 1300.849,293.431 1301.326,296.118C1301.803,298.805 1302.327,300.781 1302.897,302.045C1303.488,303.468 1304.108,304.179 1304.754,304.179C1305.818,304.179 1306.755,302.401 1307.566,298.844C1308.366,295.288 1308.98,290.388 1309.408,284.144C1309.506,282.643 1309.594,281.042 1309.671,279.343C1309.747,277.644 1309.813,275.885 1309.868,274.067L1313.814,274.067C1313.727,280.943 1313.51,287.187 1313.165,292.798C1312.819,298.41 1312.378,303.547 1311.841,308.21C1310.712,318.01 1309.276,324.807 1307.533,328.601C1306.656,330.497 1305.741,331.446 1304.787,331.446C1303.834,331.446 1302.872,330.379 1301.902,328.245C1300.932,326.111 1299.992,322.594 1299.082,317.694C1298.282,313.426 1297.591,308.23 1297.01,302.105C1296.429,295.979 1295.991,289.439 1295.695,282.484C1295.541,278.928 1295.423,275.253 1295.341,271.459C1295.259,267.666 1295.218,263.754 1295.218,259.723C1295.218,251.503 1295.38,243.817 1295.703,236.665C1296.026,229.512 1296.468,223.012 1297.027,217.163C1297.651,210.762 1298.38,205.407 1299.213,201.1C1300.047,196.792 1300.88,193.611 1301.713,191.557C1302.195,190.45 1302.694,189.581 1303.209,188.948C1303.724,188.316 1304.25,188 1304.787,188C1306.673,188 1308.383,191.596 1309.917,198.788C1310.652,202.266 1311.299,206.435 1311.858,211.295C1312.417,216.156 1312.861,221.352 1313.189,226.884C1313.518,232.575 1313.727,238.739 1313.814,245.378L1309.868,245.378C1309.78,241.822 1309.624,238.443 1309.399,235.242C1309.175,232.041 1308.914,229.255 1308.618,226.884C1308.312,224.513 1307.961,222.439 1307.566,220.661C1307.172,218.882 1306.739,217.519 1306.267,216.571C1305.774,215.701 1305.27,215.267 1304.754,215.267C1304.053,215.267 1303.412,216.037 1302.831,217.578C1302.25,219.119 1301.751,221.036 1301.334,223.328C1300.381,228.781 1299.723,236.052 1299.361,245.141C1299.263,247.433 1299.192,249.824 1299.148,252.313C1299.104,254.803 1299.082,257.352 1299.082,259.96Z" style="fill:rgb(33,33,33);fill-rule:nonzero;"/>
                <path d="M1319.158,189.186L1319.158,215.029C1319.158,217.005 1319.144,219.06 1319.117,221.194C1319.089,223.328 1319.048,225.659 1318.994,228.189C1318.928,230.718 1318.862,233.326 1318.796,236.013C1318.73,238.7 1318.648,241.506 1318.55,244.43C1318.495,245.852 1318.445,247.275 1318.402,248.698C1318.347,250.199 1318.292,251.701 1318.237,253.203L1318.566,253.203C1318.599,252.254 1318.646,250.851 1318.706,248.994C1318.766,247.137 1318.835,245.26 1318.911,243.363C1318.988,241.466 1319.059,239.846 1319.125,238.502C1319.235,235.973 1319.32,234.057 1319.38,232.753C1319.44,231.449 1319.503,230.164 1319.569,228.9C1319.635,227.635 1319.733,225.857 1319.865,223.565C1319.931,222.38 1319.997,221.214 1320.062,220.068C1320.128,218.922 1320.194,217.835 1320.26,216.808L1322.035,189.186L1325.899,189.186L1322.2,244.43L1326.228,330.26L1322.364,330.26L1319.783,275.253L1319.158,281.892L1319.158,330.26L1315.294,330.26L1315.294,189.186L1319.158,189.186Z" style="fill:rgb(33,33,33);fill-rule:nonzero;"/>
            </g>
        </g>
    </g>
</svg>
