<?xml version="1.0" encoding="UTF-8" standalone="no"?>
<!DOCTYPE svg PUBLIC "-//W3C//DTD SVG 1.1//EN" "http://www.w3.org/Graphics/SVG/1.1/DTD/svg11.dtd">
<svg width="100%" height="100%" viewBox="0 0 159 94" version="1.1" xmlns="http://www.w3.org/2000/svg" xmlns:xlink="http://www.w3.org/1999/xlink" xml:space="preserve" xmlns:serif="http://www.serif.com/" style="fill-rule:evenodd;clip-rule:evenodd;stroke-linejoin:round;stroke-miterlimit:2;">
    <g transform="matrix(1,0,0,1,-688.424224,-4279.880753)">
        <g>
            <g transform="matrix(0.31244,0,0,0.045801,285.159638,4291.315065)">
                <path d="M1360.197,1391.526L1360.197,1528.712L1373.519,1528.712L1373.519,1513.341L1362.873,1513.341L1362.873,1391.526L1360.197,1391.526Z" style="fill-rule:nonzero;"/>
                <path d="M1385.574,1469.534L1377.209,1469.534C1377.246,1465.691 1377.368,1462.072 1377.575,1458.678C1377.781,1455.284 1378.063,1452.305 1378.42,1449.744C1378.777,1447.182 1379.204,1445.164 1379.701,1443.691C1380.199,1442.218 1380.758,1441.482 1381.377,1441.482C1381.978,1441.482 1382.527,1442.218 1383.025,1443.691C1383.523,1445.164 1383.954,1447.15 1384.321,1449.648C1384.687,1452.145 1384.978,1455.124 1385.194,1458.582C1385.41,1462.04 1385.536,1465.691 1385.574,1469.534ZM1387.883,1497.202L1385.518,1497.202C1385.311,1503.734 1384.884,1508.602 1384.236,1511.804C1383.588,1515.006 1382.757,1516.608 1381.743,1516.608C1380.955,1516.608 1380.269,1515.711 1379.687,1513.918C1379.105,1512.124 1378.626,1509.723 1378.251,1506.712C1377.875,1503.702 1377.603,1500.244 1377.434,1496.337C1377.265,1492.43 1377.19,1488.299 1377.209,1483.944L1388.109,1483.944C1388.146,1477.924 1388.067,1471.583 1387.869,1464.923C1387.672,1458.262 1387.315,1452.113 1386.799,1446.477C1386.283,1440.841 1385.597,1436.198 1384.743,1432.547C1383.889,1428.897 1382.814,1427.071 1381.518,1427.071C1380.523,1427.071 1379.608,1428.352 1378.772,1430.914C1377.936,1433.476 1377.213,1437.063 1376.603,1441.674C1375.993,1446.285 1375.519,1451.729 1375.181,1458.006C1374.843,1464.282 1374.674,1471.199 1374.674,1478.756C1374.711,1486.314 1374.876,1493.295 1375.167,1499.699C1375.458,1506.104 1375.894,1511.612 1376.476,1516.223C1377.059,1520.835 1377.777,1524.421 1378.631,1526.983C1379.486,1529.545 1380.495,1530.826 1381.659,1530.826C1383.311,1530.826 1384.682,1528.008 1385.771,1522.372C1386.86,1516.736 1387.564,1508.346 1387.883,1497.202Z" style="fill-rule:nonzero;"/>
                <path d="M1390.587,1429.377L1390.587,1528.712L1392.981,1528.712L1392.981,1472.608C1392.981,1468.125 1393.071,1463.994 1393.249,1460.215C1393.427,1456.436 1393.695,1453.138 1394.052,1450.32C1394.408,1447.502 1394.854,1445.324 1395.39,1443.787C1395.925,1442.25 1396.558,1441.482 1397.291,1441.482C1398.211,1441.482 1398.934,1443.275 1399.459,1446.862C1399.985,1450.448 1400.248,1455.316 1400.248,1461.464L1400.248,1528.712L1402.642,1528.712L1402.642,1463.385C1402.642,1458.006 1402.562,1453.106 1402.403,1448.687C1402.243,1444.268 1401.966,1440.457 1401.572,1437.255C1401.178,1434.052 1400.661,1431.555 1400.023,1429.761C1399.384,1427.968 1398.586,1427.071 1397.629,1427.071C1395.469,1427.071 1393.892,1433.092 1392.897,1445.132L1392.841,1445.132L1392.841,1429.377L1390.587,1429.377Z" style="fill-rule:nonzero;"/>
                <path d="M1418.809,1520.258L1418.809,1429.377L1416.556,1429.377L1416.556,1443.595L1416.528,1443.595C1416.096,1438.087 1415.495,1433.956 1414.725,1431.202C1413.955,1428.448 1413.11,1427.071 1412.19,1427.071C1410.932,1427.071 1409.871,1428.705 1409.008,1431.971C1408.144,1435.237 1407.449,1439.4 1406.923,1444.46C1406.398,1449.519 1406.022,1455.156 1405.797,1461.368C1405.571,1467.58 1405.459,1473.633 1405.459,1479.525C1405.459,1486.314 1405.595,1492.75 1405.867,1498.835C1406.139,1504.919 1406.548,1510.235 1407.092,1514.782C1407.637,1519.329 1408.313,1522.948 1409.12,1525.638C1409.928,1528.328 1410.876,1529.673 1411.965,1529.673C1412.904,1529.673 1413.791,1528.232 1414.627,1525.35C1415.462,1522.468 1416.086,1517.952 1416.5,1511.804L1416.556,1511.804L1416.556,1518.337C1416.556,1523.845 1416.476,1528.904 1416.316,1533.516C1416.157,1538.127 1415.899,1542.066 1415.542,1545.332C1415.185,1548.598 1414.734,1551.16 1414.19,1553.018C1413.645,1554.875 1412.979,1555.804 1412.19,1555.804C1411.796,1555.804 1411.383,1555.515 1410.951,1554.939C1410.519,1554.363 1410.12,1553.434 1409.754,1552.153C1409.388,1550.872 1409.078,1549.207 1408.824,1547.157C1408.571,1545.108 1408.435,1542.61 1408.416,1539.664L1406.022,1539.664C1406.06,1545.044 1406.266,1549.591 1406.642,1553.306C1407.017,1557.02 1407.491,1560.031 1408.064,1562.336C1408.637,1564.642 1409.275,1566.307 1409.979,1567.332C1410.683,1568.357 1411.373,1568.869 1412.049,1568.869C1414.378,1568.869 1416.086,1564.834 1417.175,1556.764C1418.265,1548.695 1418.809,1536.526 1418.809,1520.258ZM1412.106,1515.455C1411.317,1515.455 1410.66,1514.334 1410.134,1512.092C1409.608,1509.851 1409.186,1506.905 1408.867,1503.254C1408.547,1499.603 1408.322,1495.536 1408.191,1491.053C1408.059,1486.57 1407.994,1482.087 1407.994,1477.604C1407.994,1472.864 1408.073,1468.317 1408.233,1463.962C1408.393,1459.607 1408.646,1455.764 1408.993,1452.434C1409.341,1449.103 1409.787,1446.445 1410.331,1444.46C1410.876,1442.474 1411.533,1441.482 1412.303,1441.482C1413.054,1441.482 1413.692,1442.506 1414.218,1444.556C1414.744,1446.605 1415.171,1449.327 1415.5,1452.722C1415.828,1456.116 1416.068,1459.927 1416.218,1464.154C1416.368,1468.381 1416.443,1472.672 1416.443,1477.027C1416.443,1481.638 1416.363,1486.25 1416.204,1490.861C1416.044,1495.472 1415.795,1499.603 1415.457,1503.254C1415.119,1506.905 1414.673,1509.851 1414.12,1512.092C1413.566,1514.334 1412.894,1515.455 1412.106,1515.455Z" style="fill-rule:nonzero;"/>
                <path d="M1434.469,1528.712L1434.469,1429.377L1432.075,1429.377L1432.075,1485.481C1432.075,1489.964 1431.986,1494.095 1431.807,1497.874C1431.629,1501.653 1431.361,1504.951 1431.005,1507.769C1430.648,1510.587 1430.202,1512.765 1429.667,1514.302C1429.132,1515.839 1428.498,1516.608 1427.766,1516.608C1426.846,1516.608 1426.123,1514.814 1425.597,1511.228C1425.071,1507.641 1424.808,1502.774 1424.808,1496.625L1424.808,1429.377L1422.414,1429.377L1422.414,1494.704C1422.414,1500.084 1422.494,1504.983 1422.654,1509.402C1422.813,1513.822 1423.09,1517.632 1423.485,1520.835C1423.879,1524.037 1424.395,1526.503 1425.034,1528.232C1425.672,1529.961 1426.47,1530.826 1427.428,1530.826C1428.498,1530.826 1429.427,1529.385 1430.216,1526.503C1431.005,1523.621 1431.653,1519.105 1432.159,1512.957L1432.216,1512.957L1432.216,1528.712L1434.469,1528.712Z" style="fill-rule:nonzero;"/>
                <path d="M1450.974,1528.328C1450.561,1529.993 1449.988,1530.826 1449.256,1530.826C1448.636,1530.826 1448.143,1529.641 1447.777,1527.271C1447.411,1524.901 1447.228,1521.027 1447.228,1515.647C1446.571,1521.027 1445.806,1524.901 1444.932,1527.271C1444.059,1529.641 1443.116,1530.826 1442.102,1530.826C1441.445,1530.826 1440.82,1530.313 1440.229,1529.289C1439.637,1528.264 1439.126,1526.663 1438.694,1524.485C1438.262,1522.308 1437.919,1519.458 1437.666,1515.935C1437.412,1512.413 1437.286,1508.153 1437.286,1503.158C1437.286,1497.522 1437.426,1492.911 1437.708,1489.324C1437.99,1485.737 1438.361,1482.823 1438.821,1480.582C1439.281,1478.34 1439.806,1476.643 1440.398,1475.49C1440.989,1474.337 1441.595,1473.377 1442.215,1472.608C1442.872,1471.711 1443.496,1471.039 1444.088,1470.591C1444.679,1470.142 1445.2,1469.502 1445.651,1468.669C1446.101,1467.837 1446.458,1466.62 1446.721,1465.019C1446.984,1463.417 1447.115,1461.08 1447.115,1458.006C1447.115,1454.419 1447.017,1451.537 1446.82,1449.359C1446.622,1447.182 1446.369,1445.517 1446.059,1444.364C1445.749,1443.211 1445.402,1442.442 1445.017,1442.058C1444.632,1441.674 1444.252,1441.482 1443.876,1441.482C1442.862,1441.482 1442.017,1442.795 1441.341,1445.421C1440.665,1448.046 1440.299,1453.01 1440.243,1460.311L1437.849,1460.311C1437.886,1454.163 1438.074,1448.975 1438.412,1444.748C1438.75,1440.521 1439.201,1437.095 1439.764,1434.469C1440.327,1431.843 1440.971,1429.953 1441.693,1428.801C1442.416,1427.648 1443.191,1427.071 1444.017,1427.071C1444.674,1427.071 1445.327,1427.392 1445.975,1428.032C1446.622,1428.673 1447.209,1429.985 1447.735,1431.971C1448.261,1433.956 1448.683,1436.742 1449.002,1440.329C1449.322,1443.915 1449.481,1448.591 1449.481,1454.355L1449.481,1505.464C1449.481,1509.306 1449.514,1512.124 1449.58,1513.918C1449.645,1515.711 1449.866,1516.608 1450.242,1516.608C1450.448,1516.608 1450.692,1516.287 1450.974,1515.647L1450.974,1528.328ZM1447.087,1477.411C1446.787,1478.949 1446.392,1480.069 1445.904,1480.774C1445.416,1481.478 1444.904,1482.055 1444.369,1482.503C1443.834,1482.951 1443.294,1483.464 1442.75,1484.04C1442.205,1484.617 1441.717,1485.545 1441.285,1486.826C1440.853,1488.107 1440.501,1489.932 1440.229,1492.302C1439.957,1494.672 1439.82,1497.906 1439.82,1502.005C1439.82,1504.695 1439.9,1506.969 1440.06,1508.826C1440.219,1510.683 1440.426,1512.188 1440.68,1513.341C1440.933,1514.494 1441.229,1515.327 1441.567,1515.839C1441.905,1516.351 1442.261,1516.608 1442.637,1516.608C1443.426,1516.608 1444.102,1515.871 1444.665,1514.398C1445.228,1512.925 1445.688,1511.068 1446.045,1508.826C1446.402,1506.584 1446.665,1504.151 1446.834,1501.525C1447.003,1498.899 1447.087,1496.433 1447.087,1494.127L1447.087,1477.411Z" style="fill-rule:nonzero;"/>
                <path d="M1455.734,1411.508L1455.734,1391.526L1453.34,1391.526L1453.34,1411.508L1455.734,1411.508ZM1455.734,1541.201L1455.734,1429.377L1453.34,1429.377L1453.34,1538.511C1453.34,1543.635 1453.246,1547.189 1453.058,1549.175C1452.87,1551.16 1452.514,1552.153 1451.988,1552.153L1451.481,1552.153C1451.406,1552.153 1451.335,1552.121 1451.27,1552.057C1451.204,1551.993 1451.124,1551.897 1451.03,1551.769L1451.03,1565.795C1451.406,1566.307 1451.81,1566.563 1452.241,1566.563C1453.312,1566.563 1454.161,1564.546 1454.79,1560.511C1455.419,1556.476 1455.734,1550.039 1455.734,1541.201Z" style="fill-rule:nonzero;"/>
                <path d="M1469.563,1469.534L1461.198,1469.534C1461.236,1465.691 1461.358,1462.072 1461.564,1458.678C1461.771,1455.284 1462.052,1452.305 1462.409,1449.744C1462.766,1447.182 1463.193,1445.164 1463.691,1443.691C1464.188,1442.218 1464.747,1441.482 1465.366,1441.482C1465.967,1441.482 1466.517,1442.218 1467.014,1443.691C1467.512,1445.164 1467.944,1447.15 1468.31,1449.648C1468.676,1452.145 1468.967,1455.124 1469.183,1458.582C1469.399,1462.04 1469.526,1465.691 1469.563,1469.534ZM1471.873,1497.202L1469.507,1497.202C1469.3,1503.734 1468.873,1508.602 1468.225,1511.804C1467.577,1515.006 1466.747,1516.608 1465.733,1516.608C1464.944,1516.608 1464.259,1515.711 1463.677,1513.918C1463.094,1512.124 1462.616,1509.723 1462.24,1506.712C1461.865,1503.702 1461.592,1500.244 1461.423,1496.337C1461.254,1492.43 1461.179,1488.299 1461.198,1483.944L1472.098,1483.944C1472.136,1477.924 1472.056,1471.583 1471.859,1464.923C1471.661,1458.262 1471.305,1452.113 1470.788,1446.477C1470.272,1440.841 1469.587,1436.198 1468.732,1432.547C1467.878,1428.897 1466.803,1427.071 1465.507,1427.071C1464.512,1427.071 1463.597,1428.352 1462.761,1430.914C1461.926,1433.476 1461.203,1437.063 1460.592,1441.674C1459.982,1446.285 1459.508,1451.729 1459.17,1458.006C1458.832,1464.282 1458.663,1471.199 1458.663,1478.756C1458.701,1486.314 1458.865,1493.295 1459.156,1499.699C1459.447,1506.104 1459.884,1511.612 1460.466,1516.223C1461.048,1520.835 1461.766,1524.421 1462.62,1526.983C1463.475,1529.545 1464.484,1530.826 1465.648,1530.826C1467.301,1530.826 1468.671,1528.008 1469.76,1522.372C1470.849,1516.736 1471.553,1508.346 1471.873,1497.202Z" style="fill-rule:nonzero;"/>
                <path d="M1482.491,1429.377L1482.491,1566.563L1484.885,1566.563L1484.885,1515.455L1484.941,1515.455C1485.204,1518.401 1485.528,1520.867 1485.913,1522.852C1486.298,1524.837 1486.706,1526.407 1487.138,1527.559C1487.57,1528.712 1488.007,1529.545 1488.448,1530.057C1488.889,1530.57 1489.288,1530.826 1489.645,1530.826C1490.753,1530.826 1491.725,1529.481 1492.56,1526.791C1493.396,1524.101 1494.09,1520.418 1494.644,1515.743C1495.198,1511.068 1495.611,1505.592 1495.884,1499.315C1496.156,1493.039 1496.292,1486.378 1496.292,1479.333C1496.292,1472.288 1496.151,1465.627 1495.87,1459.351C1495.588,1453.074 1495.17,1447.534 1494.616,1442.731C1494.062,1437.927 1493.368,1434.116 1492.532,1431.298C1491.696,1428.48 1490.715,1427.071 1489.589,1427.071C1488.575,1427.071 1487.645,1428.32 1486.8,1430.818C1485.955,1433.316 1485.336,1437.319 1484.941,1442.827L1484.885,1442.827L1484.885,1429.377L1482.491,1429.377ZM1493.757,1478.18C1493.757,1483.047 1493.682,1487.787 1493.532,1492.398C1493.382,1497.009 1493.138,1501.108 1492.8,1504.695C1492.462,1508.282 1492.016,1511.164 1491.462,1513.341C1490.908,1515.519 1490.218,1516.608 1489.392,1516.608C1488.565,1516.608 1487.861,1515.551 1487.279,1513.437C1486.697,1511.324 1486.223,1508.538 1485.857,1505.079C1485.491,1501.621 1485.223,1497.618 1485.054,1493.071C1484.885,1488.523 1484.801,1483.816 1484.801,1478.949C1484.801,1474.337 1484.88,1469.79 1485.04,1465.307C1485.2,1460.824 1485.458,1456.821 1485.815,1453.298C1486.171,1449.776 1486.631,1446.926 1487.195,1444.748C1487.758,1442.571 1488.443,1441.482 1489.251,1441.482C1490.021,1441.482 1490.692,1442.506 1491.265,1444.556C1491.837,1446.605 1492.307,1449.359 1492.673,1452.818C1493.039,1456.276 1493.311,1460.215 1493.49,1464.634C1493.668,1469.053 1493.757,1473.569 1493.757,1478.18Z" style="fill-rule:nonzero;"/>
                <path d="M1512.008,1528.328C1511.595,1529.993 1511.023,1530.826 1510.29,1530.826C1509.671,1530.826 1509.178,1529.641 1508.812,1527.271C1508.445,1524.901 1508.262,1521.027 1508.262,1515.647C1507.605,1521.027 1506.84,1524.901 1505.967,1527.271C1505.094,1529.641 1504.15,1530.826 1503.136,1530.826C1502.479,1530.826 1501.855,1530.313 1501.263,1529.289C1500.672,1528.264 1500.16,1526.663 1499.728,1524.485C1499.296,1522.308 1498.954,1519.458 1498.7,1515.935C1498.447,1512.413 1498.32,1508.153 1498.32,1503.158C1498.32,1497.522 1498.461,1492.911 1498.742,1489.324C1499.024,1485.737 1499.395,1482.823 1499.855,1480.582C1500.315,1478.34 1500.841,1476.643 1501.432,1475.49C1502.024,1474.337 1502.629,1473.377 1503.249,1472.608C1503.906,1471.711 1504.53,1471.039 1505.122,1470.591C1505.713,1470.142 1506.234,1469.502 1506.685,1468.669C1507.136,1467.837 1507.493,1466.62 1507.755,1465.019C1508.018,1463.417 1508.15,1461.08 1508.15,1458.006C1508.15,1454.419 1508.051,1451.537 1507.854,1449.359C1507.657,1447.182 1507.403,1445.517 1507.094,1444.364C1506.784,1443.211 1506.436,1442.442 1506.051,1442.058C1505.666,1441.674 1505.286,1441.482 1504.911,1441.482C1503.897,1441.482 1503.052,1442.795 1502.376,1445.421C1501.7,1448.046 1501.334,1453.01 1501.277,1460.311L1498.883,1460.311C1498.921,1454.163 1499.109,1448.975 1499.447,1444.748C1499.785,1440.521 1500.235,1437.095 1500.799,1434.469C1501.362,1431.843 1502.005,1429.953 1502.728,1428.801C1503.451,1427.648 1504.225,1427.071 1505.052,1427.071C1505.709,1427.071 1506.361,1427.392 1507.009,1428.032C1507.657,1428.673 1508.244,1429.985 1508.769,1431.971C1509.295,1433.956 1509.718,1436.742 1510.037,1440.329C1510.356,1443.915 1510.516,1448.591 1510.516,1454.355L1510.516,1505.464C1510.516,1509.306 1510.548,1512.124 1510.614,1513.918C1510.68,1515.711 1510.901,1516.608 1511.276,1516.608C1511.483,1516.608 1511.727,1516.287 1512.008,1515.647L1512.008,1528.328ZM1508.122,1477.411C1507.821,1478.949 1507.427,1480.069 1506.939,1480.774C1506.45,1481.478 1505.939,1482.055 1505.404,1482.503C1504.868,1482.951 1504.329,1483.464 1503.784,1484.04C1503.24,1484.617 1502.751,1485.545 1502.319,1486.826C1501.888,1488.107 1501.536,1489.932 1501.263,1492.302C1500.991,1494.672 1500.855,1497.906 1500.855,1502.005C1500.855,1504.695 1500.935,1506.969 1501.094,1508.826C1501.254,1510.683 1501.46,1512.188 1501.714,1513.341C1501.967,1514.494 1502.263,1515.327 1502.601,1515.839C1502.939,1516.351 1503.296,1516.608 1503.671,1516.608C1504.46,1516.608 1505.136,1515.871 1505.699,1514.398C1506.263,1512.925 1506.723,1511.068 1507.079,1508.826C1507.436,1506.584 1507.699,1504.151 1507.868,1501.525C1508.037,1498.899 1508.122,1496.433 1508.122,1494.127L1508.122,1477.411Z" style="fill-rule:nonzero;"/>
                <path d="M1514.149,1429.377L1514.149,1528.712L1516.543,1528.712L1516.543,1484.521C1516.543,1478.116 1516.637,1472.448 1516.825,1467.516C1517.012,1462.585 1517.313,1458.39 1517.726,1454.931C1518.139,1451.473 1518.684,1448.847 1519.36,1447.054C1520.036,1445.26 1520.852,1444.364 1521.81,1444.364L1521.81,1427.071C1520.514,1426.815 1519.444,1428.609 1518.599,1432.451C1517.754,1436.294 1517.041,1442.25 1516.459,1450.32L1516.402,1450.32L1516.402,1429.377L1514.149,1429.377Z" style="fill-rule:nonzero;"/>
                <path d="M1536.512,1528.328C1536.099,1529.993 1535.526,1530.826 1534.794,1530.826C1534.175,1530.826 1533.682,1529.641 1533.315,1527.271C1532.949,1524.901 1532.766,1521.027 1532.766,1515.647C1532.109,1521.027 1531.344,1524.901 1530.471,1527.271C1529.598,1529.641 1528.654,1530.826 1527.64,1530.826C1526.983,1530.826 1526.359,1530.313 1525.767,1529.289C1525.176,1528.264 1524.664,1526.663 1524.232,1524.485C1523.8,1522.308 1523.458,1519.458 1523.204,1515.935C1522.951,1512.413 1522.824,1508.153 1522.824,1503.158C1522.824,1497.522 1522.965,1492.911 1523.246,1489.324C1523.528,1485.737 1523.899,1482.823 1524.359,1480.582C1524.819,1478.34 1525.345,1476.643 1525.936,1475.49C1526.528,1474.337 1527.133,1473.377 1527.753,1472.608C1528.41,1471.711 1529.034,1471.039 1529.626,1470.591C1530.217,1470.142 1530.738,1469.502 1531.189,1468.669C1531.64,1467.837 1531.996,1466.62 1532.259,1465.019C1532.522,1463.417 1532.654,1461.08 1532.654,1458.006C1532.654,1454.419 1532.555,1451.537 1532.358,1449.359C1532.161,1447.182 1531.907,1445.517 1531.597,1444.364C1531.288,1443.211 1530.94,1442.442 1530.555,1442.058C1530.17,1441.674 1529.79,1441.482 1529.415,1441.482C1528.401,1441.482 1527.556,1442.795 1526.88,1445.421C1526.204,1448.046 1525.838,1453.01 1525.781,1460.311L1523.387,1460.311C1523.425,1454.163 1523.613,1448.975 1523.95,1444.748C1524.288,1440.521 1524.739,1437.095 1525.302,1434.469C1525.866,1431.843 1526.509,1429.953 1527.232,1428.801C1527.955,1427.648 1528.729,1427.071 1529.555,1427.071C1530.213,1427.071 1530.865,1427.392 1531.513,1428.032C1532.161,1428.673 1532.747,1429.985 1533.273,1431.971C1533.799,1433.956 1534.221,1436.742 1534.541,1440.329C1534.86,1443.915 1535.019,1448.591 1535.019,1454.355L1535.019,1505.464C1535.019,1509.306 1535.052,1512.124 1535.118,1513.918C1535.184,1515.711 1535.404,1516.608 1535.78,1516.608C1535.987,1516.608 1536.231,1516.287 1536.512,1515.647L1536.512,1528.328ZM1532.625,1477.411C1532.325,1478.949 1531.931,1480.069 1531.442,1480.774C1530.954,1481.478 1530.443,1482.055 1529.907,1482.503C1529.372,1482.951 1528.833,1483.464 1528.288,1484.04C1527.743,1484.617 1527.255,1485.545 1526.823,1486.826C1526.392,1488.107 1526.039,1489.932 1525.767,1492.302C1525.495,1494.672 1525.359,1497.906 1525.359,1502.005C1525.359,1504.695 1525.439,1506.969 1525.598,1508.826C1525.758,1510.683 1525.964,1512.188 1526.218,1513.341C1526.471,1514.494 1526.767,1515.327 1527.105,1515.839C1527.443,1516.351 1527.8,1516.608 1528.175,1516.608C1528.964,1516.608 1529.64,1515.871 1530.203,1514.398C1530.767,1512.925 1531.227,1511.068 1531.583,1508.826C1531.94,1506.584 1532.203,1504.151 1532.372,1501.525C1532.541,1498.899 1532.625,1496.433 1532.625,1494.127L1532.625,1477.411Z" style="fill-rule:nonzero;"/>
                <path d="M1359.803,1658.597L1359.803,1757.932L1362.197,1757.932L1362.197,1696.064C1362.197,1694.143 1362.267,1691.741 1362.408,1688.859C1362.549,1685.977 1362.774,1683.191 1363.084,1680.501C1363.394,1677.811 1363.797,1675.505 1364.295,1673.584C1364.793,1671.663 1365.389,1670.702 1366.083,1670.702C1366.628,1670.702 1367.074,1671.246 1367.421,1672.335C1367.769,1673.424 1368.046,1674.961 1368.252,1676.946C1368.459,1678.932 1368.604,1681.269 1368.689,1683.959C1368.773,1686.649 1368.816,1689.595 1368.816,1692.798L1368.816,1757.932L1371.21,1757.932L1371.21,1696.064C1371.21,1688.379 1371.548,1682.23 1372.224,1677.619C1372.899,1673.008 1373.829,1670.702 1375.012,1670.702C1375.594,1670.702 1376.068,1671.278 1376.434,1672.431C1376.8,1673.584 1377.087,1675.153 1377.293,1677.139C1377.5,1679.124 1377.641,1681.462 1377.716,1684.152C1377.791,1686.841 1377.828,1689.724 1377.828,1692.798L1377.828,1757.932L1380.222,1757.932L1380.222,1685.112C1380.222,1679.989 1380.105,1675.601 1379.87,1671.951C1379.636,1668.3 1379.307,1665.322 1378.885,1663.016C1378.462,1660.711 1377.955,1659.014 1377.364,1657.925C1376.772,1656.836 1376.11,1656.292 1375.378,1656.292C1374.42,1656.292 1373.543,1657.765 1372.745,1660.711C1371.947,1663.657 1371.303,1667.82 1370.815,1673.2C1370.515,1667.051 1369.998,1662.696 1369.266,1660.134C1368.534,1657.572 1367.717,1656.292 1366.816,1656.292C1364.769,1656.292 1363.201,1661.928 1362.112,1673.2L1362.056,1673.2L1362.056,1658.597L1359.803,1658.597Z" style="fill-rule:nonzero;"/>
                <path d="M1393.939,1698.754L1385.574,1698.754C1385.611,1694.911 1385.734,1691.293 1385.94,1687.898C1386.147,1684.504 1386.428,1681.526 1386.785,1678.964C1387.142,1676.402 1387.569,1674.385 1388.067,1672.911C1388.564,1671.438 1389.123,1670.702 1389.742,1670.702C1390.343,1670.702 1390.892,1671.438 1391.39,1672.911C1391.888,1674.385 1392.32,1676.37 1392.686,1678.868C1393.052,1681.366 1393.343,1684.344 1393.559,1687.802C1393.775,1691.261 1393.901,1694.911 1393.939,1698.754ZM1396.249,1726.422L1393.883,1726.422C1393.676,1732.954 1393.249,1737.822 1392.601,1741.024C1391.953,1744.227 1391.123,1745.828 1390.109,1745.828C1389.32,1745.828 1388.635,1744.931 1388.052,1743.138C1387.47,1741.344 1386.992,1738.943 1386.616,1735.933C1386.241,1732.922 1385.968,1729.464 1385.799,1725.557C1385.63,1721.65 1385.555,1717.519 1385.574,1713.164L1396.474,1713.164C1396.511,1707.144 1396.432,1700.803 1396.235,1694.143C1396.037,1687.482 1395.681,1681.334 1395.164,1675.697C1394.648,1670.061 1393.963,1665.418 1393.108,1661.767C1392.254,1658.117 1391.179,1656.292 1389.883,1656.292C1388.888,1656.292 1387.973,1657.572 1387.137,1660.134C1386.302,1662.696 1385.579,1666.283 1384.968,1670.894C1384.358,1675.505 1383.884,1680.949 1383.546,1687.226C1383.208,1693.502 1383.039,1700.419 1383.039,1707.977C1383.077,1715.534 1383.241,1722.515 1383.532,1728.92C1383.823,1735.324 1384.26,1740.832 1384.842,1745.443C1385.424,1750.055 1386.142,1753.641 1386.996,1756.203C1387.851,1758.765 1388.86,1760.046 1390.024,1760.046C1391.676,1760.046 1393.047,1757.228 1394.136,1751.592C1395.225,1745.956 1395.929,1737.566 1396.249,1726.422Z" style="fill-rule:nonzero;"/>
                <path d="M1398.868,1658.597L1398.868,1757.932L1401.262,1757.932L1401.262,1713.741C1401.262,1707.336 1401.356,1701.668 1401.544,1696.737C1401.731,1691.805 1402.032,1687.61 1402.445,1684.152C1402.858,1680.693 1403.403,1678.067 1404.079,1676.274C1404.755,1674.481 1405.571,1673.584 1406.529,1673.584L1406.529,1656.292C1405.233,1656.035 1404.163,1657.829 1403.318,1661.671C1402.473,1665.514 1401.76,1671.47 1401.178,1679.54L1401.121,1679.54L1401.121,1658.597L1398.868,1658.597Z" style="fill-rule:nonzero;"/>
                <path d="M1417.711,1690.492L1420.189,1690.492C1420.095,1684.6 1419.87,1679.508 1419.513,1675.217C1419.156,1670.926 1418.701,1667.372 1418.147,1664.553C1417.593,1661.735 1416.955,1659.654 1416.232,1658.309C1415.509,1656.964 1414.734,1656.292 1413.908,1656.292C1412.763,1656.292 1411.758,1657.669 1410.895,1660.423C1410.031,1663.177 1409.313,1666.955 1408.74,1671.759C1408.167,1676.562 1407.74,1682.198 1407.458,1688.667C1407.177,1695.135 1407.036,1702.084 1407.036,1709.514C1407.036,1716.943 1407.181,1723.764 1407.473,1729.976C1407.764,1736.189 1408.195,1741.537 1408.768,1746.02C1409.341,1750.503 1410.054,1753.962 1410.909,1756.395C1411.763,1758.829 1412.744,1760.046 1413.852,1760.046C1415.711,1760.046 1417.18,1756.716 1418.26,1750.055C1419.34,1743.394 1420.011,1733.915 1420.274,1721.618L1417.823,1721.618C1417.673,1729.304 1417.265,1735.26 1416.598,1739.487C1415.932,1743.714 1415.007,1745.828 1413.824,1745.828C1413.073,1745.828 1412.425,1744.803 1411.88,1742.754C1411.336,1740.704 1410.895,1737.982 1410.557,1734.588C1410.219,1731.193 1409.97,1727.318 1409.81,1722.963C1409.651,1718.608 1409.571,1714.125 1409.571,1709.514C1409.571,1704.518 1409.646,1699.683 1409.796,1695.007C1409.946,1690.332 1410.195,1686.201 1410.543,1682.614C1410.89,1679.028 1411.355,1676.146 1411.937,1673.968C1412.519,1671.791 1413.242,1670.702 1414.105,1670.702C1415.119,1670.702 1415.927,1672.431 1416.528,1675.89C1417.129,1679.348 1417.523,1684.216 1417.711,1690.492Z" style="fill-rule:nonzero;"/>
                <path d="M1435.849,1757.548C1435.436,1759.213 1434.863,1760.046 1434.131,1760.046C1433.511,1760.046 1433.019,1758.861 1432.652,1756.491C1432.286,1754.122 1432.103,1750.247 1432.103,1744.867C1431.446,1750.247 1430.681,1754.122 1429.808,1756.491C1428.935,1758.861 1427.991,1760.046 1426.977,1760.046C1426.32,1760.046 1425.696,1759.534 1425.104,1758.509C1424.513,1757.484 1424.001,1755.883 1423.569,1753.705C1423.137,1751.528 1422.794,1748.678 1422.541,1745.155C1422.288,1741.633 1422.161,1737.374 1422.161,1732.378C1422.161,1726.742 1422.302,1722.131 1422.583,1718.544C1422.865,1714.958 1423.236,1712.044 1423.696,1709.802C1424.156,1707.56 1424.682,1705.863 1425.273,1704.71C1425.865,1703.557 1426.47,1702.597 1427.09,1701.828C1427.747,1700.932 1428.371,1700.259 1428.963,1699.811C1429.554,1699.362 1430.075,1698.722 1430.526,1697.889C1430.977,1697.057 1431.333,1695.84 1431.596,1694.239C1431.859,1692.638 1431.99,1690.3 1431.99,1687.226C1431.99,1683.639 1431.892,1680.757 1431.695,1678.58C1431.498,1676.402 1431.244,1674.737 1430.934,1673.584C1430.624,1672.431 1430.277,1671.663 1429.892,1671.278C1429.507,1670.894 1429.127,1670.702 1428.751,1670.702C1427.738,1670.702 1426.893,1672.015 1426.217,1674.641C1425.541,1677.267 1425.174,1682.23 1425.118,1689.531L1422.724,1689.531C1422.762,1683.383 1422.949,1678.195 1423.287,1673.968C1423.625,1669.741 1424.076,1666.315 1424.639,1663.689C1425.203,1661.063 1425.846,1659.174 1426.569,1658.021C1427.292,1656.868 1428.066,1656.292 1428.892,1656.292C1429.549,1656.292 1430.202,1656.612 1430.85,1657.252C1431.498,1657.893 1432.084,1659.206 1432.61,1661.191C1433.136,1663.177 1433.558,1665.963 1433.878,1669.549C1434.197,1673.136 1434.356,1677.811 1434.356,1683.575L1434.356,1734.684C1434.356,1738.526 1434.389,1741.344 1434.455,1743.138C1434.521,1744.931 1434.741,1745.828 1435.117,1745.828C1435.323,1745.828 1435.567,1745.507 1435.849,1744.867L1435.849,1757.548ZM1431.962,1706.632C1431.662,1708.169 1431.268,1709.29 1430.779,1709.994C1430.291,1710.699 1429.78,1711.275 1429.244,1711.723C1428.709,1712.172 1428.169,1712.684 1427.625,1713.26C1427.08,1713.837 1426.592,1714.765 1426.16,1716.046C1425.728,1717.327 1425.376,1719.153 1425.104,1721.522C1424.832,1723.892 1424.696,1727.126 1424.696,1731.225C1424.696,1733.915 1424.775,1736.189 1424.935,1738.046C1425.095,1739.903 1425.301,1741.409 1425.555,1742.561C1425.808,1743.714 1426.104,1744.547 1426.442,1745.059C1426.78,1745.572 1427.137,1745.828 1427.512,1745.828C1428.301,1745.828 1428.977,1745.091 1429.54,1743.618C1430.103,1742.145 1430.563,1740.288 1430.92,1738.046C1431.277,1735.805 1431.54,1733.371 1431.709,1730.745C1431.878,1728.119 1431.962,1725.653 1431.962,1723.348L1431.962,1706.632Z" style="fill-rule:nonzero;"/>
                <path d="M1439.82,1709.129C1439.82,1704.262 1439.896,1699.523 1440.046,1694.911C1440.196,1690.3 1440.44,1686.201 1440.778,1682.614C1441.116,1679.028 1441.567,1676.146 1442.13,1673.968C1442.693,1671.791 1443.379,1670.702 1444.186,1670.702C1445.012,1670.702 1445.716,1671.759 1446.299,1673.872C1446.881,1675.986 1447.355,1678.772 1447.721,1682.23C1448.087,1685.689 1448.355,1689.691 1448.524,1694.239C1448.693,1698.786 1448.777,1703.493 1448.777,1708.361C1448.777,1712.972 1448.697,1717.519 1448.538,1722.003C1448.378,1726.486 1448.12,1730.489 1447.763,1734.011C1447.406,1737.534 1446.946,1740.384 1446.383,1742.561C1445.82,1744.739 1445.134,1745.828 1444.327,1745.828C1443.557,1745.828 1442.886,1744.803 1442.313,1742.754C1441.74,1740.704 1441.271,1737.95 1440.905,1734.492C1440.539,1731.033 1440.266,1727.094 1440.088,1722.675C1439.91,1718.256 1439.82,1713.741 1439.82,1709.129ZM1451.087,1757.932L1451.087,1620.746L1448.693,1620.746L1448.693,1671.855L1448.636,1671.855C1448.373,1668.909 1448.049,1666.443 1447.665,1664.457C1447.28,1662.472 1446.871,1660.871 1446.439,1659.654C1446.007,1658.437 1445.576,1657.572 1445.144,1657.06C1444.712,1656.548 1444.308,1656.292 1443.933,1656.292C1442.825,1656.292 1441.853,1657.669 1441.017,1660.423C1440.182,1663.177 1439.487,1666.891 1438.933,1671.567C1438.379,1676.242 1437.966,1681.718 1437.694,1687.994C1437.422,1694.271 1437.286,1700.932 1437.286,1707.977C1437.286,1715.022 1437.426,1721.682 1437.708,1727.959C1437.99,1734.235 1438.408,1739.743 1438.961,1744.483C1439.515,1749.222 1440.21,1753.001 1441.046,1755.819C1441.881,1758.637 1442.862,1760.046 1443.989,1760.046C1445.003,1760.046 1445.932,1758.829 1446.777,1756.395C1447.622,1753.962 1448.242,1749.991 1448.636,1744.483L1448.693,1744.483L1448.693,1757.932L1451.087,1757.932Z" style="fill-rule:nonzero;"/>
                <path d="M1456.523,1708.361C1456.523,1702.341 1456.64,1696.993 1456.875,1692.317C1457.109,1687.642 1457.433,1683.703 1457.846,1680.501C1458.259,1677.299 1458.743,1674.865 1459.297,1673.2C1459.851,1671.534 1460.438,1670.702 1461.057,1670.702C1461.677,1670.702 1462.264,1671.534 1462.818,1673.2C1463.371,1674.865 1463.855,1677.299 1464.268,1680.501C1464.681,1683.703 1465.005,1687.642 1465.24,1692.317C1465.474,1696.993 1465.592,1702.341 1465.592,1708.361C1465.592,1714.381 1465.474,1719.729 1465.24,1724.404C1465.005,1729.08 1464.681,1732.987 1464.268,1736.125C1463.855,1739.263 1463.371,1741.665 1462.818,1743.33C1462.264,1744.995 1461.677,1745.828 1461.057,1745.828C1460.438,1745.828 1459.851,1744.995 1459.297,1743.33C1458.743,1741.665 1458.259,1739.263 1457.846,1736.125C1457.433,1732.987 1457.109,1729.08 1456.875,1724.404C1456.64,1719.729 1456.523,1714.381 1456.523,1708.361ZM1453.988,1708.361C1453.988,1715.662 1454.138,1722.451 1454.438,1728.727C1454.739,1735.004 1455.189,1740.48 1455.79,1745.155C1456.391,1749.831 1457.133,1753.481 1458.015,1756.107C1458.898,1758.733 1459.912,1760.046 1461.057,1760.046C1462.221,1760.046 1463.24,1758.733 1464.113,1756.107C1464.986,1753.481 1465.723,1749.831 1466.324,1745.155C1466.925,1740.48 1467.376,1735.004 1467.676,1728.727C1467.976,1722.451 1468.127,1715.662 1468.127,1708.361C1468.127,1701.06 1467.976,1694.239 1467.676,1687.898C1467.376,1681.558 1466.925,1676.05 1466.324,1671.374C1465.723,1666.699 1464.986,1663.016 1464.113,1660.326C1463.24,1657.637 1462.221,1656.292 1461.057,1656.292C1459.912,1656.292 1458.898,1657.637 1458.015,1660.326C1457.133,1663.016 1456.391,1666.699 1455.79,1671.374C1455.189,1676.05 1454.739,1681.558 1454.438,1687.898C1454.138,1694.239 1453.988,1701.06 1453.988,1708.361Z" style="fill-rule:nonzero;"/>
                <path d="M1472.408,1726.614L1470.014,1726.614C1470.051,1732.762 1470.239,1737.982 1470.577,1742.273C1470.915,1746.564 1471.366,1750.023 1471.929,1752.649C1472.492,1755.274 1473.14,1757.164 1473.872,1758.317C1474.605,1759.469 1475.375,1760.046 1476.182,1760.046C1476.914,1760.046 1477.651,1759.566 1478.393,1758.605C1479.135,1757.644 1479.801,1755.947 1480.393,1753.513C1480.984,1751.079 1481.463,1747.877 1481.829,1743.906C1482.195,1739.935 1482.378,1734.94 1482.378,1728.92C1482.378,1724.18 1482.242,1720.209 1481.97,1717.007C1481.698,1713.805 1481.341,1711.147 1480.9,1709.033C1480.458,1706.92 1479.951,1705.223 1479.379,1703.942C1478.806,1702.661 1478.219,1701.572 1477.618,1700.675C1477.055,1699.779 1476.492,1698.914 1475.929,1698.082C1475.365,1697.249 1474.858,1696.224 1474.408,1695.007C1473.957,1693.79 1473.586,1692.253 1473.295,1690.396C1473.004,1688.539 1472.858,1686.201 1472.858,1683.383C1472.858,1680.821 1472.952,1678.74 1473.14,1677.139C1473.328,1675.537 1473.572,1674.256 1473.872,1673.296C1474.173,1672.335 1474.506,1671.663 1474.872,1671.278C1475.238,1670.894 1475.6,1670.702 1475.957,1670.702C1476.351,1670.702 1476.741,1670.99 1477.126,1671.567C1477.51,1672.143 1477.863,1673.072 1478.182,1674.353C1478.501,1675.633 1478.764,1677.331 1478.97,1679.444C1479.177,1681.558 1479.299,1684.216 1479.337,1687.418L1481.731,1687.418C1481.674,1681.398 1481.486,1676.37 1481.167,1672.335C1480.848,1668.3 1480.421,1665.098 1479.886,1662.728C1479.351,1660.358 1478.736,1658.693 1478.041,1657.733C1477.346,1656.772 1476.586,1656.292 1475.76,1656.292C1475.121,1656.292 1474.478,1656.836 1473.83,1657.925C1473.182,1659.014 1472.6,1660.679 1472.084,1662.92C1471.568,1665.162 1471.145,1668.076 1470.816,1671.663C1470.488,1675.249 1470.324,1679.54 1470.324,1684.536C1470.324,1690.94 1470.558,1695.936 1471.028,1699.523C1471.497,1703.109 1472.084,1705.895 1472.788,1707.881C1473.492,1709.866 1474.257,1711.403 1475.084,1712.492C1475.91,1713.581 1476.675,1714.797 1477.379,1716.142C1478.083,1717.487 1478.67,1719.249 1479.139,1721.426C1479.609,1723.604 1479.843,1726.806 1479.843,1731.033C1479.843,1734.107 1479.731,1736.637 1479.506,1738.623C1479.28,1740.608 1478.994,1742.113 1478.646,1743.138C1478.299,1744.163 1477.919,1744.867 1477.506,1745.251C1477.093,1745.636 1476.698,1745.828 1476.323,1745.828C1475.835,1745.828 1475.361,1745.507 1474.9,1744.867C1474.44,1744.227 1474.027,1743.17 1473.661,1741.697C1473.295,1740.224 1472.999,1738.238 1472.774,1735.74C1472.549,1733.243 1472.427,1730.201 1472.408,1726.614Z" style="fill-rule:nonzero;"/>
                <path d="M1502.742,1690.492L1505.221,1690.492C1505.127,1684.6 1504.901,1679.508 1504.545,1675.217C1504.188,1670.926 1503.732,1667.372 1503.179,1664.553C1502.625,1661.735 1501.986,1659.654 1501.263,1658.309C1500.54,1656.964 1499.766,1656.292 1498.94,1656.292C1497.794,1656.292 1496.79,1657.669 1495.926,1660.423C1495.062,1663.177 1494.344,1666.955 1493.771,1671.759C1493.199,1676.562 1492.771,1682.198 1492.49,1688.667C1492.208,1695.135 1492.067,1702.084 1492.067,1709.514C1492.067,1716.943 1492.213,1723.764 1492.504,1729.976C1492.795,1736.189 1493.227,1741.537 1493.799,1746.02C1494.372,1750.503 1495.086,1753.962 1495.94,1756.395C1496.794,1758.829 1497.775,1760.046 1498.883,1760.046C1500.742,1760.046 1502.212,1756.716 1503.291,1750.055C1504.371,1743.394 1505.042,1733.915 1505.305,1721.618L1502.855,1721.618C1502.704,1729.304 1502.296,1735.26 1501.629,1739.487C1500.963,1743.714 1500.038,1745.828 1498.855,1745.828C1498.104,1745.828 1497.456,1744.803 1496.912,1742.754C1496.367,1740.704 1495.926,1737.982 1495.588,1734.588C1495.25,1731.193 1495.001,1727.318 1494.842,1722.963C1494.682,1718.608 1494.602,1714.125 1494.602,1709.514C1494.602,1704.518 1494.677,1699.683 1494.827,1695.007C1494.978,1690.332 1495.226,1686.201 1495.574,1682.614C1495.921,1679.028 1496.386,1676.146 1496.968,1673.968C1497.55,1671.791 1498.273,1670.702 1499.137,1670.702C1500.151,1670.702 1500.958,1672.431 1501.559,1675.89C1502.16,1679.348 1502.554,1684.216 1502.742,1690.492Z" style="fill-rule:nonzero;"/>
                <path d="M1509.727,1708.361C1509.727,1702.341 1509.844,1696.993 1510.079,1692.317C1510.314,1687.642 1510.638,1683.703 1511.051,1680.501C1511.464,1677.299 1511.947,1674.865 1512.501,1673.2C1513.055,1671.534 1513.642,1670.702 1514.262,1670.702C1514.881,1670.702 1515.468,1671.534 1516.022,1673.2C1516.576,1674.865 1517.059,1677.299 1517.472,1680.501C1517.886,1683.703 1518.209,1687.642 1518.444,1692.317C1518.679,1696.993 1518.796,1702.341 1518.796,1708.361C1518.796,1714.381 1518.679,1719.729 1518.444,1724.404C1518.209,1729.08 1517.886,1732.987 1517.472,1736.125C1517.059,1739.263 1516.576,1741.665 1516.022,1743.33C1515.468,1744.995 1514.881,1745.828 1514.262,1745.828C1513.642,1745.828 1513.055,1744.995 1512.501,1743.33C1511.947,1741.665 1511.464,1739.263 1511.051,1736.125C1510.638,1732.987 1510.314,1729.08 1510.079,1724.404C1509.844,1719.729 1509.727,1714.381 1509.727,1708.361ZM1507.192,1708.361C1507.192,1715.662 1507.342,1722.451 1507.643,1728.727C1507.943,1735.004 1508.394,1740.48 1508.995,1745.155C1509.596,1749.831 1510.337,1753.481 1511.22,1756.107C1512.102,1758.733 1513.116,1760.046 1514.262,1760.046C1515.426,1760.046 1516.444,1758.733 1517.318,1756.107C1518.191,1753.481 1518.928,1749.831 1519.529,1745.155C1520.129,1740.48 1520.58,1735.004 1520.88,1728.727C1521.181,1722.451 1521.331,1715.662 1521.331,1708.361C1521.331,1701.06 1521.181,1694.239 1520.88,1687.898C1520.58,1681.558 1520.129,1676.05 1519.529,1671.374C1518.928,1666.699 1518.191,1663.016 1517.318,1660.326C1516.444,1657.637 1515.426,1656.292 1514.262,1656.292C1513.116,1656.292 1512.102,1657.637 1511.22,1660.326C1510.337,1663.016 1509.596,1666.699 1508.995,1671.374C1508.394,1676.05 1507.943,1681.558 1507.643,1687.898C1507.342,1694.239 1507.192,1701.06 1507.192,1708.361Z" style="fill-rule:nonzero;"/>
                <path d="M1524.148,1658.597L1524.148,1757.932L1526.542,1757.932L1526.542,1696.064C1526.542,1694.143 1526.612,1691.741 1526.753,1688.859C1526.894,1685.977 1527.119,1683.191 1527.429,1680.501C1527.739,1677.811 1528.142,1675.505 1528.64,1673.584C1529.138,1671.663 1529.734,1670.702 1530.429,1670.702C1530.973,1670.702 1531.419,1671.246 1531.766,1672.335C1532.114,1673.424 1532.391,1674.961 1532.597,1676.946C1532.804,1678.932 1532.949,1681.269 1533.034,1683.959C1533.118,1686.649 1533.161,1689.595 1533.161,1692.798L1533.161,1757.932L1535.555,1757.932L1535.555,1696.064C1535.555,1688.379 1535.893,1682.23 1536.569,1677.619C1537.245,1673.008 1538.174,1670.702 1539.357,1670.702C1539.939,1670.702 1540.413,1671.278 1540.779,1672.431C1541.145,1673.584 1541.432,1675.153 1541.638,1677.139C1541.845,1679.124 1541.986,1681.462 1542.061,1684.152C1542.136,1686.841 1542.174,1689.724 1542.174,1692.798L1542.174,1757.932L1544.568,1757.932L1544.568,1685.112C1544.568,1679.989 1544.45,1675.601 1544.216,1671.951C1543.981,1668.3 1543.652,1665.322 1543.23,1663.016C1542.807,1660.711 1542.3,1659.014 1541.709,1657.925C1541.117,1656.836 1540.455,1656.292 1539.723,1656.292C1538.765,1656.292 1537.888,1657.765 1537.09,1660.711C1536.292,1663.657 1535.649,1667.82 1535.16,1673.2C1534.86,1667.051 1534.344,1662.696 1533.611,1660.134C1532.879,1657.572 1532.062,1656.292 1531.161,1656.292C1529.114,1656.292 1527.546,1661.928 1526.457,1673.2L1526.401,1673.2L1526.401,1658.597L1524.148,1658.597Z" style="fill-rule:nonzero;"/>
                <path d="M1548.257,1658.597L1548.257,1795.783L1550.651,1795.783L1550.651,1744.675L1550.708,1744.675C1550.971,1747.621 1551.294,1750.087 1551.679,1752.072C1552.064,1754.058 1552.473,1755.627 1552.905,1756.78C1553.336,1757.932 1553.773,1758.765 1554.214,1759.277C1554.655,1759.79 1555.054,1760.046 1555.411,1760.046C1556.519,1760.046 1557.491,1758.701 1558.326,1756.011C1559.162,1753.321 1559.857,1749.638 1560.411,1744.963C1560.965,1740.288 1561.378,1734.812 1561.65,1728.535C1561.922,1722.259 1562.058,1715.598 1562.058,1708.553C1562.058,1701.508 1561.917,1694.847 1561.636,1688.571C1561.354,1682.294 1560.936,1676.754 1560.382,1671.951C1559.829,1667.147 1559.134,1663.337 1558.298,1660.519C1557.463,1657.701 1556.482,1656.292 1555.355,1656.292C1554.341,1656.292 1553.412,1657.54 1552.567,1660.038C1551.722,1662.536 1551.102,1666.539 1550.708,1672.047L1550.651,1672.047L1550.651,1658.597L1548.257,1658.597ZM1559.523,1707.4C1559.523,1712.268 1559.448,1717.007 1559.298,1721.618C1559.148,1726.23 1558.904,1730.329 1558.566,1733.915C1558.228,1737.502 1557.782,1740.384 1557.228,1742.561C1556.674,1744.739 1555.984,1745.828 1555.158,1745.828C1554.332,1745.828 1553.627,1744.771 1553.045,1742.657C1552.463,1740.544 1551.989,1737.758 1551.623,1734.299C1551.257,1730.841 1550.989,1726.838 1550.82,1722.291C1550.651,1717.744 1550.567,1713.036 1550.567,1708.169C1550.567,1703.557 1550.647,1699.01 1550.806,1694.527C1550.966,1690.044 1551.224,1686.041 1551.581,1682.518C1551.938,1678.996 1552.398,1676.146 1552.961,1673.968C1553.524,1671.791 1554.21,1670.702 1555.017,1670.702C1555.787,1670.702 1556.458,1671.727 1557.031,1673.776C1557.603,1675.826 1558.073,1678.58 1558.439,1682.038C1558.805,1685.496 1559.077,1689.435 1559.256,1693.854C1559.434,1698.274 1559.523,1702.789 1559.523,1707.4Z" style="fill-rule:nonzero;"/>
                <rect x="1565.016" y="1620.746" width="2.394" height="137.186" style="fill-rule:nonzero;"/>
                <path d="M1581.239,1698.754L1572.874,1698.754C1572.911,1694.911 1573.033,1691.293 1573.24,1687.898C1573.446,1684.504 1573.728,1681.526 1574.085,1678.964C1574.442,1676.402 1574.869,1674.385 1575.366,1672.911C1575.864,1671.438 1576.423,1670.702 1577.042,1670.702C1577.643,1670.702 1578.192,1671.438 1578.69,1672.911C1579.188,1674.385 1579.619,1676.37 1579.986,1678.868C1580.352,1681.366 1580.643,1684.344 1580.859,1687.802C1581.075,1691.261 1581.201,1694.911 1581.239,1698.754ZM1583.548,1726.422L1581.183,1726.422C1580.976,1732.954 1580.549,1737.822 1579.901,1741.024C1579.253,1744.227 1578.422,1745.828 1577.408,1745.828C1576.62,1745.828 1575.934,1744.931 1575.352,1743.138C1574.77,1741.344 1574.291,1738.943 1573.916,1735.933C1573.54,1732.922 1573.268,1729.464 1573.099,1725.557C1572.93,1721.65 1572.855,1717.519 1572.874,1713.164L1583.774,1713.164C1583.811,1707.144 1583.732,1700.803 1583.534,1694.143C1583.337,1687.482 1582.98,1681.334 1582.464,1675.697C1581.948,1670.061 1581.262,1665.418 1580.408,1661.767C1579.554,1658.117 1578.479,1656.292 1577.183,1656.292C1576.188,1656.292 1575.273,1657.572 1574.437,1660.134C1573.601,1662.696 1572.878,1666.283 1572.268,1670.894C1571.658,1675.505 1571.184,1680.949 1570.846,1687.226C1570.508,1693.502 1570.339,1700.419 1570.339,1707.977C1570.376,1715.534 1570.541,1722.515 1570.832,1728.92C1571.123,1735.324 1571.559,1740.832 1572.141,1745.443C1572.724,1750.055 1573.442,1753.641 1574.296,1756.203C1575.15,1758.765 1576.16,1760.046 1577.324,1760.046C1578.976,1760.046 1580.347,1757.228 1581.436,1751.592C1582.525,1745.956 1583.229,1737.566 1583.548,1726.422Z" style="fill-rule:nonzero;"/>
                <path d="M1588.787,1640.728L1588.787,1620.746L1586.393,1620.746L1586.393,1640.728L1588.787,1640.728ZM1588.787,1770.421L1588.787,1658.597L1586.393,1658.597L1586.393,1767.731C1586.393,1772.855 1586.299,1776.41 1586.112,1778.395C1585.924,1780.38 1585.567,1781.373 1585.041,1781.373L1584.534,1781.373C1584.459,1781.373 1584.389,1781.341 1584.323,1781.277C1584.257,1781.213 1584.177,1781.117 1584.084,1780.989L1584.084,1795.015C1584.459,1795.527 1584.863,1795.783 1585.295,1795.783C1586.365,1795.783 1587.215,1793.766 1587.844,1789.731C1588.473,1785.696 1588.787,1779.26 1588.787,1770.421Z" style="fill-rule:nonzero;"/>
                <path d="M1594.251,1708.361C1594.251,1702.341 1594.369,1696.993 1594.603,1692.317C1594.838,1687.642 1595.162,1683.703 1595.575,1680.501C1595.988,1677.299 1596.472,1674.865 1597.026,1673.2C1597.58,1671.534 1598.166,1670.702 1598.786,1670.702C1599.406,1670.702 1599.992,1671.534 1600.546,1673.2C1601.1,1674.865 1601.584,1677.299 1601.997,1680.501C1602.41,1683.703 1602.734,1687.642 1602.969,1692.317C1603.203,1696.993 1603.321,1702.341 1603.321,1708.361C1603.321,1714.381 1603.203,1719.729 1602.969,1724.404C1602.734,1729.08 1602.41,1732.987 1601.997,1736.125C1601.584,1739.263 1601.1,1741.665 1600.546,1743.33C1599.992,1744.995 1599.406,1745.828 1598.786,1745.828C1598.166,1745.828 1597.58,1744.995 1597.026,1743.33C1596.472,1741.665 1595.988,1739.263 1595.575,1736.125C1595.162,1732.987 1594.838,1729.08 1594.603,1724.404C1594.369,1719.729 1594.251,1714.381 1594.251,1708.361ZM1591.716,1708.361C1591.716,1715.662 1591.867,1722.451 1592.167,1728.727C1592.468,1735.004 1592.918,1740.48 1593.519,1745.155C1594.12,1749.831 1594.862,1753.481 1595.744,1756.107C1596.627,1758.733 1597.641,1760.046 1598.786,1760.046C1599.95,1760.046 1600.969,1758.733 1601.842,1756.107C1602.715,1753.481 1603.452,1749.831 1604.053,1745.155C1604.654,1740.48 1605.104,1735.004 1605.405,1728.727C1605.705,1722.451 1605.855,1715.662 1605.855,1708.361C1605.855,1701.06 1605.705,1694.239 1605.405,1687.898C1605.104,1681.558 1604.654,1676.05 1604.053,1671.374C1603.452,1666.699 1602.715,1663.016 1601.842,1660.326C1600.969,1657.637 1599.95,1656.292 1598.786,1656.292C1597.641,1656.292 1596.627,1657.637 1595.744,1660.326C1594.862,1663.016 1594.12,1666.699 1593.519,1671.374C1592.918,1676.05 1592.468,1681.558 1592.167,1687.898C1591.867,1694.239 1591.716,1701.06 1591.716,1708.361Z" style="fill-rule:nonzero;"/>
                <path d="M1610.137,1726.614L1607.743,1726.614C1607.78,1732.762 1607.968,1737.982 1608.306,1742.273C1608.644,1746.564 1609.094,1750.023 1609.658,1752.649C1610.221,1755.274 1610.869,1757.164 1611.601,1758.317C1612.334,1759.469 1613.103,1760.046 1613.911,1760.046C1614.643,1760.046 1615.38,1759.566 1616.122,1758.605C1616.863,1757.644 1617.53,1755.947 1618.121,1753.513C1618.713,1751.079 1619.192,1747.877 1619.558,1743.906C1619.924,1739.935 1620.107,1734.94 1620.107,1728.92C1620.107,1724.18 1619.971,1720.209 1619.699,1717.007C1619.426,1713.805 1619.07,1711.147 1618.628,1709.033C1618.187,1706.92 1617.68,1705.223 1617.108,1703.942C1616.535,1702.661 1615.948,1701.572 1615.347,1700.675C1614.784,1699.779 1614.221,1698.914 1613.657,1698.082C1613.094,1697.249 1612.587,1696.224 1612.136,1695.007C1611.686,1693.79 1611.315,1692.253 1611.024,1690.396C1610.733,1688.539 1610.587,1686.201 1610.587,1683.383C1610.587,1680.821 1610.681,1678.74 1610.869,1677.139C1611.057,1675.537 1611.301,1674.256 1611.601,1673.296C1611.902,1672.335 1612.235,1671.663 1612.601,1671.278C1612.967,1670.894 1613.329,1670.702 1613.685,1670.702C1614.08,1670.702 1614.469,1670.99 1614.854,1671.567C1615.239,1672.143 1615.591,1673.072 1615.911,1674.353C1616.23,1675.633 1616.493,1677.331 1616.699,1679.444C1616.906,1681.558 1617.028,1684.216 1617.065,1687.418L1619.459,1687.418C1619.403,1681.398 1619.215,1676.37 1618.896,1672.335C1618.577,1668.3 1618.15,1665.098 1617.615,1662.728C1617.079,1660.358 1616.464,1658.693 1615.77,1657.733C1615.075,1656.772 1614.314,1656.292 1613.488,1656.292C1612.85,1656.292 1612.207,1656.836 1611.559,1657.925C1610.911,1659.014 1610.329,1660.679 1609.813,1662.92C1609.296,1665.162 1608.874,1668.076 1608.545,1671.663C1608.217,1675.249 1608.052,1679.54 1608.052,1684.536C1608.052,1690.94 1608.287,1695.936 1608.756,1699.523C1609.226,1703.109 1609.813,1705.895 1610.517,1707.881C1611.221,1709.866 1611.986,1711.403 1612.812,1712.492C1613.639,1713.581 1614.404,1714.797 1615.108,1716.142C1615.812,1717.487 1616.399,1719.249 1616.868,1721.426C1617.338,1723.604 1617.572,1726.806 1617.572,1731.033C1617.572,1734.107 1617.46,1736.637 1617.234,1738.623C1617.009,1740.608 1616.723,1742.113 1616.375,1743.138C1616.028,1744.163 1615.648,1744.867 1615.235,1745.251C1614.821,1745.636 1614.427,1745.828 1614.052,1745.828C1613.563,1745.828 1613.089,1745.507 1612.629,1744.867C1612.169,1744.227 1611.756,1743.17 1611.39,1741.697C1611.024,1740.224 1610.728,1738.238 1610.503,1735.74C1610.277,1733.243 1610.155,1730.201 1610.137,1726.614Z" style="fill-rule:nonzero;"/>
            </g>
            <g transform="matrix(0.587954,0,0,0.193136,-96.640872,4009.102937)">
                <path d="M1344.679,1828.027C1341.885,1828.027 1339.615,1825.748 1337.869,1821.192C1336.123,1816.636 1335.25,1810.712 1335.25,1803.422C1335.25,1797.347 1335.849,1791.879 1337.046,1787.019C1338.243,1782.159 1339.89,1779.729 1341.985,1779.729C1343.781,1779.729 1345.028,1781.248 1345.727,1784.285C1346.425,1787.323 1346.899,1790.816 1347.149,1794.765C1347.398,1798.714 1347.747,1802.207 1348.197,1805.245C1348.646,1808.282 1349.519,1809.801 1350.816,1809.801C1352.712,1809.801 1354.433,1806.46 1355.979,1799.777C1357.526,1793.094 1358.748,1783.678 1359.646,1771.528L1385.39,1432.078C1385.889,1425.699 1385.889,1421.446 1385.39,1419.32C1384.891,1417.194 1383.644,1415.523 1381.648,1414.308L1378.655,1412.485C1377.358,1411.574 1376.709,1409.903 1376.709,1407.473C1376.709,1403.828 1377.607,1402.006 1379.403,1402.006L1406.045,1402.006C1407.442,1402.006 1408.14,1403.524 1408.14,1406.562C1408.14,1409.903 1407.142,1412.03 1405.147,1412.941L1402.153,1414.308C1399.958,1415.219 1398.461,1416.814 1397.663,1419.092C1396.865,1421.37 1396.216,1425.699 1395.717,1432.078L1374.614,1710.016C1371.82,1746.467 1367.754,1775.249 1362.415,1796.36C1357.077,1817.471 1351.165,1828.027 1344.679,1828.027Z" style="fill-rule:nonzero;"/>
                <path d="M1407.99,1734.165C1402.702,1734.165 1398.461,1727.862 1395.268,1715.256C1392.075,1702.65 1390.479,1684.805 1390.479,1661.719C1390.479,1641.671 1391.651,1621.775 1393.996,1602.03C1396.341,1582.286 1399.409,1564.364 1403.201,1548.265C1406.993,1532.166 1411.158,1519.256 1415.698,1509.536C1420.238,1499.816 1424.654,1494.956 1428.944,1494.956C1433.634,1494.956 1437.002,1498.373 1439.047,1505.207C1441.093,1512.042 1442.115,1521.231 1442.115,1532.774C1442.115,1546.443 1440.544,1560.036 1437.401,1573.553C1434.258,1587.07 1429.867,1599.145 1424.23,1609.776C1418.592,1620.408 1411.982,1628.306 1404.398,1633.469C1402.203,1634.988 1401.056,1638.785 1400.956,1644.86C1400.856,1646.987 1400.806,1649.189 1400.806,1651.467L1400.806,1658.074C1400.806,1675.388 1401.779,1688.45 1403.725,1697.259C1405.67,1706.068 1408.34,1710.472 1411.732,1710.472C1415.524,1710.472 1419.191,1705.156 1422.733,1694.525C1426.275,1683.893 1429.244,1668.857 1431.638,1649.417C1431.938,1646.683 1432.536,1645.316 1433.435,1645.316C1434.033,1645.316 1434.407,1646.075 1434.557,1647.594C1434.707,1649.113 1434.682,1650.935 1434.482,1653.062C1431.289,1679.793 1427.423,1699.992 1422.883,1713.662C1418.343,1727.331 1413.379,1734.165 1407.99,1734.165ZM1402.452,1616.155C1402.253,1618.281 1402.378,1620.028 1402.827,1621.395C1403.276,1622.762 1403.849,1623.142 1404.548,1622.534C1410.734,1617.37 1415.923,1609.548 1420.114,1599.069C1424.305,1588.589 1427.473,1576.818 1429.618,1563.757C1431.763,1550.695 1432.836,1537.937 1432.836,1525.483C1432.836,1512.725 1431.189,1506.347 1427.897,1506.347C1425.003,1506.347 1421.86,1511.51 1418.467,1521.838C1415.075,1532.166 1411.932,1545.683 1409.038,1562.39C1406.144,1579.097 1403.949,1597.018 1402.452,1616.155Z" style="fill-rule:nonzero;"/>
                <path d="M1445.857,1730.065C1444.46,1730.065 1443.912,1728.09 1444.211,1724.141L1458.43,1542.342C1458.929,1535.659 1459.003,1530.419 1458.654,1526.622C1458.305,1522.825 1457.382,1520.927 1455.885,1520.927C1454.089,1520.927 1452.119,1524.952 1449.973,1533.001C1447.828,1541.051 1445.408,1556.315 1442.714,1578.793C1442.315,1582.742 1441.617,1584.716 1440.619,1584.716C1439.122,1584.716 1438.723,1581.982 1439.421,1576.515C1441.617,1555.555 1443.936,1539.152 1446.381,1527.306C1448.826,1515.459 1451.295,1507.106 1453.79,1502.246C1456.284,1497.386 1458.579,1494.956 1460.675,1494.956C1463.968,1494.956 1466.312,1498.677 1467.709,1506.119C1469.106,1513.561 1469.156,1525.787 1467.859,1542.798L1466.213,1564.213C1466.113,1566.339 1466.262,1567.554 1466.662,1567.858C1467.061,1568.161 1467.41,1567.402 1467.709,1565.579C1471.501,1539.152 1474.943,1520.775 1478.037,1510.447C1481.13,1500.12 1484.672,1494.956 1488.663,1494.956C1491.357,1494.956 1493.378,1497.158 1494.725,1501.562C1496.072,1505.967 1496.746,1511.966 1496.746,1519.56C1496.746,1527.154 1496.147,1533.229 1494.95,1537.786C1493.752,1542.342 1492.206,1544.62 1490.31,1544.62C1488.713,1544.62 1487.566,1543.405 1486.867,1540.975C1486.169,1538.545 1485.645,1535.735 1485.296,1532.546C1484.947,1529.356 1484.572,1526.546 1484.173,1524.116C1483.774,1521.686 1483.126,1520.471 1482.227,1520.471C1480.731,1520.471 1478.785,1526.243 1476.39,1537.786C1473.996,1549.328 1471.426,1564.896 1468.682,1584.488C1465.938,1604.081 1463.294,1626.027 1460.75,1650.328C1458.205,1674.629 1455.985,1699.537 1454.089,1725.053C1453.79,1728.394 1453.091,1730.065 1451.994,1730.065L1445.857,1730.065Z" style="fill-rule:nonzero;"/>
                <path d="M1498.093,1828.482C1490.21,1828.482 1484.223,1824.078 1480.132,1815.269C1476.041,1806.46 1473.996,1795.98 1473.996,1783.83C1473.996,1773.198 1475.368,1762.794 1478.112,1752.619C1480.855,1742.443 1485.919,1730.824 1493.303,1717.762C1494.401,1715.94 1495.024,1713.889 1495.174,1711.611C1495.324,1709.333 1494.85,1707.131 1493.752,1705.004C1490.958,1699.537 1489.287,1693.158 1488.738,1685.868C1488.189,1678.577 1488.813,1673.414 1490.609,1670.376L1501.984,1650.328C1502.982,1648.809 1503.506,1646.911 1503.556,1644.633C1503.606,1642.354 1503.082,1640.304 1501.984,1638.481C1499.29,1633.621 1497.269,1626.711 1495.922,1617.75C1494.575,1608.789 1493.902,1598.993 1493.902,1588.361C1493.902,1571.958 1495.224,1556.695 1497.868,1542.57C1500.512,1528.445 1504.055,1516.978 1508.495,1508.169C1512.935,1499.36 1517.899,1494.956 1523.387,1494.956C1525.682,1494.956 1527.628,1495.867 1529.224,1497.689C1530.422,1498.904 1531.32,1497.689 1531.918,1494.044C1533.615,1482.805 1535.785,1473.92 1538.429,1467.39C1541.073,1460.859 1543.842,1457.593 1546.736,1457.593C1548.831,1457.593 1550.453,1459.264 1551.6,1462.605C1552.748,1465.947 1553.322,1470.503 1553.322,1476.275C1553.322,1482.046 1552.773,1486.754 1551.675,1490.399C1550.578,1494.044 1549.181,1495.867 1547.484,1495.867C1546.187,1495.867 1545.214,1495.108 1544.566,1493.589C1543.917,1492.07 1543.343,1490.551 1542.844,1489.032C1542.346,1487.514 1541.547,1486.754 1540.45,1486.754C1538.255,1486.754 1536.508,1490.551 1535.211,1498.145C1534.812,1500.879 1534.712,1503.385 1534.912,1505.663C1535.111,1507.941 1535.511,1510.295 1536.109,1512.725C1538.704,1523.053 1540.001,1536.115 1540.001,1551.91C1540.001,1566.187 1538.978,1579.78 1536.932,1592.69C1534.887,1605.6 1532.093,1616.535 1528.551,1625.496C1525.009,1634.457 1520.943,1640.456 1516.353,1643.493C1514.557,1644.708 1512.935,1646.151 1511.488,1647.822C1510.041,1649.493 1508.22,1652.454 1506.025,1656.707L1500.038,1667.642C1498.542,1670.376 1498.143,1673.793 1498.841,1677.894C1499.539,1681.995 1501.485,1685.868 1504.678,1689.513L1517.55,1704.093C1523.138,1710.168 1527.004,1717.61 1529.15,1726.419C1531.295,1735.228 1532.367,1745.556 1532.367,1757.403C1532.367,1771.983 1530.796,1784.589 1527.653,1795.221C1524.51,1805.852 1520.344,1814.054 1515.155,1819.825C1509.967,1825.596 1504.279,1828.482 1498.093,1828.482ZM1503.93,1596.563C1503.93,1610.536 1504.603,1620.636 1505.95,1626.863C1507.297,1633.09 1509.218,1636.203 1511.713,1636.203C1514.906,1636.203 1517.874,1631.723 1520.618,1622.762C1523.362,1613.801 1525.582,1602.258 1527.279,1588.133C1528.975,1574.009 1529.823,1559.352 1529.823,1544.164C1529.823,1528.977 1529.174,1518.573 1527.877,1512.953C1526.58,1507.334 1524.634,1504.524 1522.04,1504.524C1518.947,1504.524 1516.003,1509.004 1513.21,1517.965C1510.416,1526.926 1508.171,1538.393 1506.474,1552.366C1504.778,1566.339 1503.93,1581.071 1503.93,1596.563ZM1499.739,1817.091C1503.631,1817.091 1507.273,1815.117 1510.665,1811.168C1514.058,1807.219 1516.827,1801.6 1518.972,1794.309C1521.117,1787.019 1522.19,1778.362 1522.19,1768.338C1522.19,1758.314 1521.367,1750.037 1519.72,1743.506C1518.074,1736.975 1514.856,1730.976 1510.066,1725.508L1507.223,1722.319C1505.427,1720.192 1503.631,1719.433 1501.834,1720.041C1500.038,1720.648 1498.342,1722.167 1496.746,1724.597C1491.357,1733.71 1487.715,1742.215 1485.82,1750.113C1483.924,1758.01 1482.976,1766.667 1482.976,1776.084C1482.976,1787.323 1484.323,1796.967 1487.017,1805.017C1489.711,1813.066 1493.952,1817.091 1499.739,1817.091Z" style="fill-rule:nonzero;"/>
                <path d="M1551.226,1734.165C1547.634,1734.165 1544.84,1729.457 1542.844,1720.041C1540.849,1710.624 1539.851,1696.803 1539.851,1678.577C1539.851,1661.263 1540.649,1643.873 1542.246,1626.407C1543.842,1608.941 1546.037,1592.31 1548.831,1576.515C1551.625,1560.719 1554.793,1546.746 1558.336,1534.596C1561.878,1522.446 1565.62,1512.801 1569.561,1505.663C1573.502,1498.525 1577.419,1494.956 1581.31,1494.956C1583.206,1494.956 1585.002,1496.095 1586.698,1498.373C1588.395,1500.651 1589.792,1504.22 1590.889,1509.08C1591.488,1511.814 1592.086,1513.181 1592.685,1513.181C1593.284,1513.181 1593.883,1511.814 1594.481,1509.08C1595.579,1504.22 1596.477,1501.107 1597.175,1499.74C1597.874,1498.373 1598.522,1497.689 1599.121,1497.689C1600.418,1497.689 1600.917,1499.816 1600.618,1504.068L1587.297,1678.577C1585.8,1698.322 1586.798,1708.194 1590.29,1708.194C1592.585,1708.194 1594.656,1703.486 1596.502,1694.069C1598.348,1684.653 1600.219,1670.072 1602.114,1650.328C1602.414,1646.987 1603.062,1645.316 1604.06,1645.316C1604.759,1645.316 1605.208,1646.227 1605.407,1648.05C1605.607,1649.872 1605.607,1651.999 1605.407,1654.429C1603.511,1682.982 1600.967,1703.41 1597.774,1715.712C1594.581,1728.014 1590.739,1734.165 1586.249,1734.165C1582.358,1734.165 1579.589,1729.153 1577.942,1719.129C1576.296,1709.105 1576.121,1695.436 1577.419,1678.122L1579.364,1653.062C1579.564,1650.935 1579.439,1649.72 1578.99,1649.417C1578.541,1649.113 1578.167,1649.872 1577.868,1651.695C1572.38,1682.374 1567.515,1703.789 1563.275,1715.94C1559.034,1728.09 1555.018,1734.165 1551.226,1734.165ZM1554.968,1710.928C1557.363,1710.928 1560.007,1706.523 1562.9,1697.714C1565.794,1688.905 1568.663,1677.514 1571.507,1663.541C1574.35,1649.569 1576.97,1634.533 1579.364,1618.433C1581.759,1602.334 1583.68,1586.843 1585.127,1571.958C1586.574,1557.074 1587.297,1544.468 1587.297,1534.14C1587.297,1515.611 1585.152,1506.347 1580.861,1506.347C1578.267,1506.347 1575.523,1509.916 1572.629,1517.054C1569.736,1524.192 1566.967,1533.837 1564.322,1545.987C1561.678,1558.137 1559.283,1571.882 1557.138,1587.222C1554.993,1602.562 1553.272,1618.509 1551.974,1635.064C1550.677,1651.619 1550.029,1667.794 1550.029,1683.59C1550.029,1694.221 1550.453,1701.435 1551.301,1705.232C1552.149,1709.029 1553.371,1710.928 1554.968,1710.928Z" style="fill-rule:nonzero;"/>
            </g>
        </g>
    </g>
</svg>
